SplineFontDB: 3.0
FontName: Nika-Regular
FullName: Nika Regular
FamilyName: Nika
Weight: Regular
Copyright: Copyright (c) 2016 Copyright Holder Persian Font Store (info@font-store.ir), with Reserved Font Name "Nika"
UComments: "2015-5-13: Created with FontForge (http://fontforge.org)"
Version: Version:0.1.5;RFB:1.2.5;Building:2016-04-19 07:00:48.054882
FONDName: RITA
ItalicAngle: 0
UnderlinePosition: 500
UnderlineWidth: 59
Ascent: 800
Descent: 500
InvalidEm: 0
sfntRevision: 0x00010000
LayerCount: 2
Layer: 0 0 "Back" 1
Layer: 1 0 "Fore" 0
PreferredKerning: 4
XUID: [1021 828 -1901974348 32649]
StyleMap: 0x0040
FSType: 0
OS2Version: 0
OS2_WeightWidthSlopeOnly: 0
OS2_UseTypoMetrics: 0
CreationTime: 1431477301
ModificationTime: 1461033048
PfmFamily: 33
TTFWeight: 400
TTFWidth: 5
LineGap: 100
VLineGap: 0
Panose: 2 0 5 3 0 0 0 0 0 0
OS2TypoAscent: 800
OS2TypoAOffset: 0
OS2TypoDescent: -500
OS2TypoDOffset: 0
OS2TypoLinegap: 100
OS2WinAscent: 1100
OS2WinAOffset: 0
OS2WinDescent: 700
OS2WinDOffset: 0
HheadAscent: 1100
HheadAOffset: 0
HheadDescent: -700
HheadDOffset: 0
OS2SubXSize: 780
OS2SubYSize: 839
OS2SubXOff: -107
OS2SubYOff: 168
OS2SupXSize: 780
OS2SupYSize: 839
OS2SupXOff: 369
OS2SupYOff: 575
OS2StrikeYSize: 59
OS2StrikeYPos: 310
OS2Vendor: 'RITA'
OS2CodePages: 00000040.00000000
OS2UnicodeRanges: 80002003.80002000.00000008.00000000
MacStyle: 0
Lookup: 4 1 1 "'ccmp' Glyph Composition/Decomposition in Arabic lookup 5" { "'ccmp' Glyph Composition/Decomposition in Arabic lookup 5-1"  } ['ccmp' ('DFLT' <'dflt' > 'arab' <'dflt' > ) ]
Lookup: 1 9 0 "'isol' Isolated Forms in Latin lookup 1" { "'isol' Isolated Forms in Latin lookup 1-1"  } ['isol' ('DFLT' <'dflt' > 'arab' <'dflt' > ) ]
Lookup: 1 9 0 "'fina' Terminal Forms in Arabic lookup 3" { "'fina' Terminal Forms in Arabic lookup 3-1"  } ['fina' ('DFLT' <'dflt' > 'arab' <'dflt' > ) ]

StartChar: _.alef.isol
Encoding: 65536 -1 0
GlifName: _.alef.isol
Width: 216
VWidth: 1304
GlyphClass: 2
Flags: HMW
LayerCount: 2
Fore
SplineSet
64 702 m 0
 64 735 70 744 101 770 c 2
 124 790 l 2
 131 796 137 800 142 800 c 0
 149 800 152 793 152 779 c 2
 152 20 l 2
 152 6 118 -23 100 -23 c 0
 93 -23 88 -20 88 -10 c 2
 65 667 l 2
 64 681 64 693 64 702 c 0
EndSplineSet
Colour: ffda6b
EndChar

StartChar: _.alef.fina
Encoding: 65537 -1 1
GlifName: _.alef.fina
Width: 287
VWidth: 1304
GlyphClass: 2
Flags: HMW
LayerCount: 2
Fore
SplineSet
64 702 m 0
 64 735 70 744 101 770 c 2
 124 790 l 2
 131 796 137 800 142 800 c 0
 149 800 152 793 152 779 c 2
 152 159 l 1
 153 129 186 100 276 100 c 2
 287 100 l 1
 287 -0 l 1
 272 -0 l 2
 145 0 82 63 82 141 c 1
 65 667 l 2
 64 681 64 693 64 702 c 0
EndSplineSet
Colour: ffda6b
EndChar

StartChar: _.beh.isol
Encoding: 65540 -1 4
GlifName: _.beh.isol
Width: 931
VWidth: 1304
GlyphClass: 2
UnlinkRmOvrlpSave: 1
Flags: HMW
LayerCount: 2
Fore
SplineSet
64 180 m 0
 64 221 74 271 96 329 c 0
 98 335 107 337 112 335 c 2
 150 320 l 2
 155 318 161 311 156 301 c 0
 142 268 136 239 136 215 c 0
 136 115 241 84 372 84 c 0
 514 84 686 121 789 152 c 1
 789 154 789 157 789 159 c 0
 789 209 764 293 748 345 c 0
 743 360 751 367 756 372 c 2
 805 413 l 2
 817 424 825 413 827 407 c 0
 853 332 867 268 867 213 c 0
 867 202 866 192 865 181 c 1
 865 178 l 1
 861 128 852 82 798 59 c 1
 702 26 519 -19 361 -19 c 0
 201 -19 64 27 64 180 c 0
EndSplineSet
Colour: ffda6b
EndChar

StartChar: _.beh.fina
Encoding: 65541 -1 5
GlifName: _.beh.fina
Width: 1056
VWidth: 1304
GlyphClass: 2
UnlinkRmOvrlpSave: 1
Flags: HMW
LayerCount: 2
Fore
SplineSet
64 181 m 0
 64 222 74 271 96 329 c 0
 98 335 107 337 112 335 c 2
 150 320 l 2
 155 318 161 311 156 301 c 0
 142 268 136 240 136 216 c 0
 136 117 241 84 371 84 c 0
 522 84 709 128 809 159 c 1
 793 202 783 252 773 304 c 0
 772 313 776 324 786 326 c 2
 830 340 l 2
 837 342 847 334 848 327 c 0
 879 187 896 100 1041 100 c 2
 1056 100 l 1
 1056 -0 l 1
 1041 -0 l 2
 946 0 888 31 850 80 c 1
 787 50 557 -19 362 -19 c 0
 201 -19 64 28 64 181 c 0
EndSplineSet
Colour: ffda6b
EndChar

StartChar: _.beh.medi
Encoding: 65542 -1 6
GlifName: _.beh.medi
Width: 439
VWidth: 1304
GlyphClass: 2
UnlinkRmOvrlpSave: 1
Flags: HMW
LayerCount: 2
Fore
SplineSet
-50 49 m 0
 -50 76 -27 100 -1 100 c 0
 48 100 86 102 120 112 c 0
 162 126 180 152 180 184 c 2
 180 290 l 2
 180 304 180 315 200 320 c 2
 234 329 l 2
 249 333 259 327 259 310 c 2
 259 157 l 2
 259 136 287 119 318 112 c 0
 357 101 398 100 439 100 c 1
 439 -0 l 1
 415 -0 l 2
 315 0 254 26 220 69 c 1
 184 26 123 0 23 -0 c 2
 -1 -0 l 2
 -25 0 -50 24 -50 49 c 0
EndSplineSet
Colour: ffda6b
EndChar

StartChar: _.beh.init
Encoding: 65543 -1 7
GlifName: _.beh.init
Width: 325
VWidth: 1197
GlyphClass: 1
UnlinkRmOvrlpSave: 1
Flags: HMW
LayerCount: 2
Fore
SplineSet
-50 50 m 0
 -50 76 -26 100 -1 100 c 0
 91 100 140 111 178 139 c 0
 181 142 181 147 181 155 c 0
 181 192 156 280 141 327 c 0
 136 342 143 349 149 354 c 2
 199 396 l 1
 210 407 219 396 220 390 c 0
 246 318 261 255 261 201 c 0
 261 179 259 158 253 139 c 1
 253 134 l 1
 219 22 127 0 0 -0 c 0
 -25 0 -50 24 -50 50 c 0
EndSplineSet
Colour: ffda6b
EndChar

StartChar: _.heh.isol
Encoding: 65544 -1 8
GlifName: _.heh.isol
Width: 744
VWidth: 1304
GlyphClass: 1
UnlinkRmOvrlpSave: 1
Flags: HMW
LayerCount: 2
Fore
SplineSet
66 295 m 0
 104 401 157 437 220 437 c 0
 342 437 501 306 662 306 c 0
 688 306 679 286 677 279 c 2
 659 223 l 2
 657 214 647 210 636 210 c 2
 615 210 l 1
 343 194 136 19 136 -120 c 0
 136 -215 231 -300 435 -300 c 0
 491 -300 554 -294 626 -280 c 1
 606 -381 l 1
 537 -394 476 -399 423 -399 c 0
 146 -399 77 -244 77 -131 c 0
 77 22 202 195 411 269 c 1
 333 303 262 338 207 338 c 0
 168 338 137 320 118 272 c 0
 113 262 103 256 91 261 c 2
 75 268 l 2
 66 272 61 279 66 295 c 0
EndSplineSet
Colour: ffda6b
EndChar

StartChar: _.heh.fina
Encoding: 65545 -1 9
GlifName: _.heh.fina
Width: 746
VWidth: 1304
GlyphClass: 1
UnlinkRmOvrlpSave: 1
Flags: HMW
LayerCount: 2
Fore
SplineSet
66 295 m 0
 104 401 157 437 220 437 c 0
 342 437 501 306 662 306 c 0
 688 306 679 286 677 279 c 2
 659 223 l 2
 657 214 647 210 636 210 c 2
 615 210 l 1
 594 209 574 206 553 204 c 1
 581 115 648 100 746 100 c 1
 746 -0 l 1
 713 -0 l 2
 560 0 503 85 491 192 c 1
 282 139 136 -3 136 -120 c 0
 136 -215 231 -300 435 -300 c 0
 491 -300 554 -294 626 -280 c 1
 606 -381 l 1
 537 -394 476 -399 423 -399 c 0
 146 -399 77 -244 77 -131 c 0
 77 22 202 195 411 269 c 1
 333 303 262 338 207 338 c 0
 168 338 137 320 118 272 c 0
 113 262 103 256 91 261 c 2
 75 268 l 2
 66 272 61 279 66 295 c 0
EndSplineSet
Colour: ffda6b
EndChar

StartChar: _.heh.medi
Encoding: 65546 -1 10
GlifName: _.heh.medi
Width: 728
VWidth: 1304
GlyphClass: 1
UnlinkRmOvrlpSave: 1
Flags: HMW
LayerCount: 2
Fore
SplineSet
-50 50 m 0
 -50 75 -26 100 -1 100 c 2
 77 100 l 2
 268 100 362 184 462 246 c 1
 362 284 268 338 199 338 c 0
 160 338 129 320 110 272 c 0
 105 262 95 256 83 261 c 2
 67 268 l 2
 58 272 53 279 58 295 c 0
 96 401 149 437 212 437 c 0
 334 437 493 306 654 306 c 0
 680 306 671 286 669 279 c 2
 652 223 l 2
 650 214 639 210 628 210 c 0
 596 210 568 204 540 193 c 1
 571 114 633 100 728 100 c 1
 728 -0 l 1
 696 -0 l 2
 557 0 496 70 478 162 c 1
 373 100 276 0 100 -0 c 2
 -1 -0 l 2
 -26 0 -50 24 -50 50 c 0
EndSplineSet
Colour: ffda6b
EndChar

StartChar: _.heh.init
Encoding: 65547 -1 11
GlifName: _.heh.init
Width: 736
VWidth: 1304
GlyphClass: 1
UnlinkRmOvrlpSave: 1
Flags: HMW
LayerCount: 2
Fore
SplineSet
-50 50 m 0
 -50 75 -26 100 -1 100 c 2
 77 100 l 2
 268 100 362 184 462 246 c 1
 362 284 268 338 199 338 c 0
 160 338 129 320 110 272 c 0
 105 262 95 256 83 261 c 2
 67 268 l 2
 58 272 53 279 58 295 c 0
 96 401 149 437 212 437 c 0
 334 437 493 306 654 306 c 0
 680 306 671 286 669 279 c 2
 652 223 l 2
 650 214 639 210 628 210 c 0
 442 210 354 0 100 -0 c 2
 -1 -0 l 2
 -26 0 -50 24 -50 50 c 0
EndSplineSet
Colour: ffda6b
EndChar

StartChar: _.sin.isol
Encoding: 65548 -1 12
GlifName: _.sin.isol
Width: 1354
VWidth: 1304
GlyphClass: 1
UnlinkRmOvrlpSave: 1
Flags: HMW
LayerCount: 2
Fore
SplineSet
64 -38 m 0
 64 20 77 90 108 170 c 0
 112 180 119 185 130 181 c 2
 162 168 l 1
 172 163 175 155 170 144 c 0
 147 83 136 32 136 -11 c 0
 136 -142 231 -196 338 -196 c 0
 450 -196 577 -137 622 -47 c 0
 622 -45 622 -43 622 -41 c 0
 622 12 579 157 561 210 c 0
 557 225 564 232 570 237 c 2
 619 280 l 1
 641 298 647 254 652 240 c 0
 686 145 742 101 820 101 c 0
 869 101 913 121 924 167 c 2
 953 287 l 2
 955 294 965 301 972 299 c 2
 1017 287 l 2
 1026 285 1030 273 1029 264 c 2
 1000 134 l 1
 1032 111 1080 91 1112 90 c 0
 1127 90 1180 96 1210 113 c 1
 1210 117 1210 120 1210 124 c 0
 1210 163 1199 206 1171 296 c 0
 1167 308 1171 314 1177 320 c 1
 1230 362 l 2
 1237 368 1247 372 1251 358 c 0
 1269 306 1290 238 1290 165 c 0
 1290 163 1290 161 1290 159 c 0
 1290 52 1214 -10 1112 -10 c 0
 1063 -10 992 20 958 58 c 1
 921 21 867 -1 813 -1 c 0
 771 -1 728 12 693 40 c 1
 693 32 l 2
 693 26 693 20 693 14 c 0
 693 -184 506 -300 336 -300 c 0
 194 -300 64 -220 64 -38 c 0
EndSplineSet
Colour: ffda6b
EndChar

StartChar: _.sin.fina
Encoding: 65549 -1 13
GlifName: _.sin.fina
Width: 1464
VWidth: 1304
GlyphClass: 1
UnlinkRmOvrlpSave: 1
Flags: HMW
LayerCount: 2
Fore
SplineSet
64 -38 m 0
 64 20 77 90 108 170 c 0
 112 180 119 185 130 181 c 2
 162 168 l 1
 172 163 175 155 170 144 c 0
 147 83 136 32 136 -11 c 0
 136 -142 231 -196 338 -196 c 0
 450 -196 577 -137 622 -47 c 0
 622 -45 622 -43 622 -41 c 0
 622 12 579 157 561 210 c 0
 557 225 564 232 570 237 c 2
 619 280 l 1
 641 298 647 254 652 240 c 0
 686 145 742 101 820 101 c 0
 869 101 913 121 924 167 c 2
 953 287 l 2
 955 294 965 301 972 299 c 2
 1017 287 l 2
 1026 285 1030 273 1029 264 c 2
 1000 133 l 1
 1032 111 1078 91 1110 90 c 0
 1154 90 1194 104 1231 124 c 1
 1206 174 1192 238 1180 304 c 0
 1179 313 1184 324 1194 326 c 2
 1237 340 l 2
 1244 342 1255 334 1256 327 c 0
 1287 187 1304 100 1450 100 c 2
 1464 100 l 1
 1464 -0 l 1
 1450 -0 l 2
 1361 0 1305 26 1267 69 c 1
 1237 19 1179 -10 1110 -10 c 0
 1062 -10 992 19 956 56 c 1
 920 20 867 0 814 -0 c 0
 771 0 728 12 693 40 c 1
 693 32 l 2
 693 26 693 20 693 14 c 0
 693 -184 506 -300 336 -300 c 0
 194 -300 64 -220 64 -38 c 0
EndSplineSet
Colour: ffda6b
EndChar

StartChar: _.sin.medi
Encoding: 65550 -1 14
GlifName: _.sin.medi
Width: 1017
VWidth: 1304
GlyphClass: 1
UnlinkRmOvrlpSave: 1
Flags: HMW
LayerCount: 2
Fore
SplineSet
-50 49 m 0
 -50 75 -27 100 -1 100 c 0
 136 100 172 143 193 223 c 1
 207 287 l 2
 209 294 220 301 227 299 c 2
 270 285 l 2
 279 283 284 273 282 263 c 2
 256 142 l 1
 290 113 331 100 369 100 c 0
 422 100 468 125 478 167 c 2
 506 287 l 2
 508 294 519 301 526 299 c 2
 570 287 l 2
 579 285 584 273 583 264 c 2
 554 133 l 1
 586 111 632 91 664 90 c 0
 708 90 748 104 785 124 c 1
 760 174 746 238 734 304 c 0
 733 313 738 324 748 326 c 2
 791 340 l 2
 798 342 808 334 809 327 c 0
 840 187 858 100 1004 100 c 2
 1017 100 l 1
 1017 -0 l 1
 1004 -0 l 2
 915 0 858 26 820 69 c 1
 790 19 733 -10 664 -10 c 0
 616 -10 545 19 511 56 c 1
 472 17 417 0 362 0 c 0
 300 0 238 23 207 65 c 1
 163 22 95 0 -1 -0 c 0
 -25 1 -50 24 -50 49 c 0
EndSplineSet
Colour: ffda6b
EndChar

StartChar: _.sin.init
Encoding: 65551 -1 15
GlifName: _.sin.init
Width: 907
VWidth: 1304
GlyphClass: 1
UnlinkRmOvrlpSave: 1
Flags: HMW
LayerCount: 2
Fore
SplineSet
-50 49 m 0
 -50 75 -27 100 -1 100 c 0
 136 100 172 143 193 223 c 1
 207 287 l 2
 209 294 220 301 227 299 c 2
 270 285 l 2
 279 283 284 273 282 263 c 2
 256 142 l 1
 290 113 331 100 369 100 c 0
 422 100 468 125 478 167 c 2
 506 287 l 2
 508 294 519 301 526 299 c 2
 570 287 l 2
 579 285 584 273 583 264 c 2
 554 133 l 1
 586 111 632 91 664 90 c 0
 679 90 733 96 763 113 c 1
 763 117 763 121 763 125 c 0
 763 163 752 207 723 296 c 0
 719 308 723 314 729 320 c 1
 782 362 l 2
 789 368 799 372 803 358 c 0
 822 307 843 238 843 165 c 0
 843 163 843 161 843 159 c 0
 843 52 767 -10 664 -10 c 0
 616 -10 545 19 511 56 c 1
 472 17 417 0 362 0 c 0
 300 0 238 23 207 65 c 1
 163 22 95 0 -1 -0 c 0
 -25 1 -50 24 -50 49 c 0
EndSplineSet
Colour: ffda6b
EndChar

StartChar: _.sad.isol
Encoding: 65552 -1 16
GlifName: _.sad.isol
Width: 1412
VWidth: 1304
GlyphClass: 1
UnlinkRmOvrlpSave: 1
Flags: HMW
LayerCount: 2
Fore
SplineSet
64 -37 m 0
 64 21 77 90 108 170 c 0
 112 180 119 185 130 181 c 2
 162 168 l 1
 172 163 175 155 170 144 c 0
 147 83 136 32 136 -11 c 0
 136 -142 231 -196 338 -196 c 0
 450 -196 576 -137 621 -47 c 0
 621 -45 622 -43 622 -41 c 0
 622 12 579 157 561 210 c 0
 557 225 564 232 570 237 c 2
 618 279 l 1
 618 280 l 1
 629 291 637 280 641 273 c 1
 646 258 l 1
 667 206 700 149 752 113 c 1
 884 252 1007 400 1145 400 c 0
 1146 400 1146 400 1147 400 c 0
 1277 400 1348 285 1348 199 c 0
 1348 167 1344 109 1303 82 c 0
 1221 27 1087 -20 868 -20 c 0
 792 -20 737 -4 693 29 c 1
 693 24 693 19 693 14 c 0
 693 -184 506 -300 336 -300 c 0
 194 -300 64 -219 64 -37 c 0
805 88 m 1
 821 83 838 80 856 80 c 0
 1036 80 1174 113 1269 155 c 1
 1260 212 1208 290 1127 290 c 0
 994 289 864 153 805 88 c 1
EndSplineSet
Colour: ffda6b
EndChar

StartChar: _.sad.fina
Encoding: 65553 -1 17
GlifName: _.sad.fina
Width: 1502
VWidth: 1304
GlyphClass: 1
UnlinkRmOvrlpSave: 1
Flags: HMW
LayerCount: 2
Fore
SplineSet
64 -37 m 0
 64 21 77 90 108 170 c 0
 112 180 119 185 130 181 c 2
 162 168 l 1
 172 163 175 155 170 144 c 0
 147 83 136 32 136 -11 c 0
 136 -142 231 -196 338 -196 c 0
 450 -196 576 -137 621 -47 c 0
 621 -45 622 -43 622 -41 c 0
 622 12 579 157 561 210 c 0
 557 225 564 232 570 237 c 2
 618 279 l 1
 618 280 l 1
 629 291 637 280 641 273 c 1
 646 258 l 1
 667 206 700 149 752 113 c 1
 884 252 1007 400 1145 400 c 0
 1146 400 1146 400 1147 400 c 0
 1277 400 1348 285 1348 199 c 0
 1348 181 1347 155 1338 130 c 1
 1377 100 1455 100 1502 100 c 1
 1502 -0 l 1
 1477 -0 l 2
 1379 0 1317 26 1281 69 c 1
 1199 20 1069 -20 868 -20 c 0
 792 -20 737 -4 693 29 c 1
 693 24 693 19 693 14 c 0
 693 -184 506 -300 336 -300 c 0
 194 -300 64 -219 64 -37 c 0
805 88 m 1
 821 83 838 80 856 80 c 0
 1036 80 1174 113 1269 155 c 1
 1260 212 1208 290 1127 290 c 0
 994 289 864 153 805 88 c 1
EndSplineSet
Colour: ffda6b
EndChar

StartChar: _.sad.medi
Encoding: 65554 -1 18
GlifName: _.sad.medi
Width: 1046
VWidth: 1304
GlyphClass: 1
UnlinkRmOvrlpSave: 1
Flags: HMW
LayerCount: 2
Fore
SplineSet
-50 49 m 0
 -50 76 -27 100 -1 100 c 0
 64 100 115 114 151 132 c 1
 139 154 127 179 115 207 c 0
 110 218 109 225 121 239 c 2
 161 280 l 2
 170 290 176 285 181 273 c 0
 202 216 236 151 294 113 c 1
 426 252 547 400 687 400 c 0
 688 400 688 400 689 400 c 0
 819 400 889 285 889 199 c 0
 889 182 888 156 879 133 c 1
 918 101 999 100 1046 100 c 1
 1046 -0 l 1
 1021 -0 l 2
 923 0 861 26 825 69 c 1
 825 71 l 1
 741 21 614 -20 408 -20 c 0
 310 -20 245 9 197 64 c 1
 164 31 100 0 -1 -0 c 0
 -25 0 -50 24 -50 49 c 0
346 88 m 1
 362 83 380 80 398 80 c 0
 577 80 715 113 809 155 c 1
 802 212 750 290 668 290 c 0
 535 289 405 153 346 88 c 1
EndSplineSet
Colour: ffda6b
EndChar

StartChar: _.sad.init
Encoding: 65555 -1 19
GlifName: _.sad.init
Width: 953
VWidth: 1304
GlyphClass: 1
UnlinkRmOvrlpSave: 1
Flags: HMW
LayerCount: 2
Fore
SplineSet
-50 49 m 0
 -50 76 -27 100 -1 100 c 0
 64 100 115 114 151 132 c 1
 139 154 127 179 115 207 c 0
 110 218 109 225 121 239 c 2
 161 280 l 2
 170 290 176 285 181 273 c 0
 202 216 236 151 294 113 c 1
 426 252 547 400 687 400 c 0
 688 400 688 400 689 400 c 0
 819 400 889 285 889 199 c 0
 889 167 886 109 844 82 c 0
 763 27 628 -20 408 -20 c 0
 310 -20 245 9 197 64 c 1
 164 31 100 0 -1 -0 c 0
 -25 0 -50 24 -50 49 c 0
346 88 m 1
 362 83 380 80 398 80 c 0
 577 80 715 113 809 155 c 1
 802 212 750 290 668 290 c 0
 535 289 405 153 346 88 c 1
EndSplineSet
Colour: ffda6b
EndChar

StartChar: _.ta.isol
Encoding: 65556 -1 20
GlifName: _.ta.isol
Width: 841
VWidth: 1304
GlyphClass: 1
UnlinkRmOvrlpSave: 1
Flags: HMW
LayerCount: 2
Fore
SplineSet
64 102 m 0
 64 114 69 122 81 122 c 0
 85 122 90 121 96 119 c 0
 114 114 139 105 166 98 c 1
 166 100 l 1
 174 108 184 116 192 125 c 0
 212 146 225 179 224 209 c 2
 209 667 l 2
 208 681 208 693 208 702 c 0
 208 735 214 744 245 770 c 2
 268 790 l 2
 275 796 281 800 286 800 c 0
 293 800 297 793 297 779 c 2
 297 235 l 1
 387 327 476 400 574 400 c 0
 575 400 575 400 576 400 c 0
 706 400 777 285 777 199 c 0
 777 167 773 109 731 82 c 0
 650 27 515 -20 295 -20 c 0
 184 -20 131 0 97 21 c 0
 88 26 64 74 64 102 c 0
230 85 m 1
 248 81 267 80 285 80 c 0
 464 80 603 113 697 155 c 1
 690 212 637 290 555 290 c 0
 421 289 288 150 230 85 c 1
EndSplineSet
Colour: ffda6b
EndChar

StartChar: _.ta.fina
Encoding: 65557 -1 21
GlifName: _.ta.fina
Width: 931
VWidth: 1304
GlyphClass: 1
UnlinkRmOvrlpSave: 1
Flags: HMW
LayerCount: 2
Fore
SplineSet
64 102 m 0
 64 114 69 122 81 122 c 0
 85 122 90 121 96 119 c 0
 114 114 139 105 166 98 c 1
 166 100 l 1
 174 108 184 116 192 125 c 0
 212 146 225 179 224 209 c 2
 209 667 l 2
 208 681 208 693 208 702 c 0
 208 735 214 744 245 770 c 2
 268 790 l 2
 275 796 281 800 286 800 c 0
 293 800 297 793 297 779 c 2
 297 235 l 1
 387 327 476 400 574 400 c 0
 575 400 575 400 576 400 c 0
 706 400 777 285 777 199 c 0
 777 181 776 155 767 130 c 1
 806 100 884 100 931 100 c 1
 931 -0 l 1
 906 -0 l 2
 808 0 744 26 710 69 c 1
 626 20 497 -20 295 -20 c 0
 184 -20 131 0 97 21 c 0
 88 26 64 74 64 102 c 0
230 85 m 1
 248 81 267 80 285 80 c 0
 464 80 603 113 697 155 c 1
 690 212 637 290 555 290 c 0
 421 289 288 150 230 85 c 1
EndSplineSet
Colour: ffda6b
EndChar

StartChar: _.ta.medi
Encoding: 65558 -1 22
GlifName: _.ta.medi
Width: 823
VWidth: 1304
GlyphClass: 1
UnlinkRmOvrlpSave: 1
Flags: HMW
LayerCount: 2
Fore
SplineSet
-50 50 m 0
 -50 75 -26 100 -1 100 c 2
 60 100 l 1
 84 125 l 2
 104 146 117 179 116 209 c 2
 101 667 l 2
 100 681 100 693 100 702 c 0
 100 735 106 744 137 770 c 2
 161 790 l 2
 168 796 173 800 178 800 c 0
 185 800 189 793 189 779 c 2
 189 235 l 1
 279 327 368 400 466 400 c 0
 467 400 467 400 468 400 c 0
 598 400 669 285 669 199 c 0
 669 181 668 155 659 132 c 1
 698 101 776 100 823 100 c 1
 823 -0 l 1
 799 -0 l 2
 699 0 638 26 602 69 c 1
 602 70 l 1
 520 23 393 1 194 -0 c 1
 0 -0 l 1
 -25 1 -50 24 -50 50 c 0
137 100 m 1
 178 100 l 2
 357 100 495 121 589 157 c 1
 579 215 528 290 447 290 c 0
 323 289 200 170 137 100 c 1
EndSplineSet
Colour: ffda6b
EndChar

StartChar: _.ta.init
Encoding: 65559 -1 23
GlifName: _.ta.init
Width: 733
VWidth: 1304
GlyphClass: 1
UnlinkRmOvrlpSave: 1
Flags: HMW
LayerCount: 2
Fore
SplineSet
-50 50 m 0
 -50 75 -26 100 -1 100 c 2
 60 100 l 1
 68 108 76 117 84 125 c 0
 104 146 117 179 116 209 c 2
 101 667 l 2
 100 681 100 693 100 702 c 0
 100 735 106 744 137 770 c 2
 161 790 l 2
 168 796 173 800 178 800 c 0
 185 800 189 793 189 779 c 2
 189 235 l 1
 279 327 368 400 466 400 c 0
 467 400 467 400 468 400 c 0
 598 400 669 285 669 199 c 0
 669 167 665 109 623 82 c 0
 543 27 411 1 194 -0 c 1
 0 -0 l 1
 -25 1 -50 24 -50 50 c 0
137 100 m 1
 178 100 l 2
 357 100 495 121 589 157 c 1
 579 215 528 290 447 290 c 0
 323 289 200 170 137 100 c 1
EndSplineSet
Colour: ffda6b
EndChar

StartChar: _.ein.isol
Encoding: 65560 -1 24
GlifName: _.ein.isol
Width: 667
VWidth: 1304
GlyphClass: 1
UnlinkRmOvrlpSave: 1
Flags: HMW
LayerCount: 2
Fore
SplineSet
183 481 m 1
 225 565 300 596 371 596 c 0
 425 596 482 578 544 556 c 0
 562 550 562 540 558 530 c 2
 549 503 l 1
 544 492 538 491 522 495 c 0
 500 500 476 503 450 503 c 0
 384 503 311 485 255 449 c 1
 260 374 301 305 348 255 c 1
 410 282 486 300 587 317 c 0
 604 321 603 304 602 295 c 2
 592 252 l 2
 590 245 583 226 566 221 c 0
 502 204 421 186 345 150 c 0
 207 84 123 -26 123 -120 c 0
 123 -215 205 -300 404 -300 c 0
 458 -300 521 -294 593 -280 c 1
 574 -381 l 1
 505 -394 444 -399 392 -399 c 0
 120 -399 64 -244 64 -131 c 0
 64 -12 133 121 260 208 c 1
 245 223 222 252 213 264 c 0
 187 308 171 362 171 411 c 0
 171 436 175 459 183 480 c 1
 183 481 l 1
EndSplineSet
Colour: ffda6b
EndChar

StartChar: _.ein.fina
Encoding: 65561 -1 25
GlifName: _.ein.fina
Width: 607
VWidth: 1304
GlyphClass: 1
UnlinkRmOvrlpSave: 1
Flags: HMW
LayerCount: 2
Fore
SplineSet
64 328 m 1
 81 428 l 1
 161 462 266 486 352 486 c 0
 439 486 507 462 513 399 c 1
 513 394 l 1
 515 320 455 230 365 165 c 1
 412 127 471 100 549 100 c 2
 607 100 l 1
 607 -0 l 1
 573 -0 l 2
 447 0 367 57 304 125 c 1
 193 59 127 -36 127 -120 c 0
 127 -215 209 -300 408 -300 c 0
 462 -300 525 -294 597 -280 c 1
 577 -381 l 1
 508 -394 447 -399 395 -399 c 0
 123 -399 67 -244 67 -131 c 0
 67 -18 130 109 246 196 c 1
 191 268 149 333 90 333 c 0
 82 333 73 331 64 328 c 1
183 367 m 1
 221 335 256 282 299 230 c 1
 376 270 444 312 444 345 c 0
 444 354 439 362 428 369 c 0
 404 384 371 390 335 390 c 0
 287 390 233 380 183 367 c 1
EndSplineSet
Colour: ffda6b
EndChar

StartChar: _.ein.medi
Encoding: 65562 -1 26
GlifName: _.ein.medi
Width: 601
VWidth: 1304
GlyphClass: 1
UnlinkRmOvrlpSave: 1
Flags: HMW
LayerCount: 2
Fore
SplineSet
-50 50 m 0
 -49 75 -25 99 -2 100 c 1
 40 100 l 2
 103 100 179 119 249 149 c 1
 233 165 219 182 207 197 c 0
 173 239 139 266 104 266 c 0
 93 266 80 263 69 257 c 0
 59 251 50 245 40 239 c 1
 40 340 l 1
 124 404 267 455 375 455 c 0
 453 455 511 428 516 359 c 1
 516 358 l 2
 516 354 517 349 517 345 c 0
 517 269 466 195 391 134 c 1
 433 113 483 100 548 100 c 2
 601 100 l 1
 601 -0 l 1
 548 -0 l 2
 452 0 377 38 318 85 c 1
 229 33 126 0 35 -0 c 2
 -2 -0 l 1
 -25 1 -50 24 -50 50 c 0
179 311 m 1
 221 275 272 220 319 181 c 1
 398 223 455 273 451 310 c 1
 443 342 410 355 364 355 c 0
 312 355 245 338 179 311 c 1
EndSplineSet
Colour: ffda6b
EndChar

StartChar: _.ein.init
Encoding: 65563 -1 27
GlifName: _.ein.init
Width: 532
VWidth: 1304
GlyphClass: 1
UnlinkRmOvrlpSave: 1
Flags: HMW
LayerCount: 2
Fore
SplineSet
36 288 m 0
 36 416 151 474 236 474 c 0
 290 474 347 456 409 434 c 0
 427 427 427 417 423 407 c 2
 413 381 l 2
 409 370 403 369 387 373 c 0
 364 378 340 381 314 381 c 0
 248 381 176 363 120 327 c 1
 124 251 167 172 215 122 c 1
 301 144 383 176 452 176 c 0
 469 176 470 161 466 152 c 2
 454 120 l 2
 450 108 448 102 430 100 c 0
 339 88 228 0 78 -0 c 2
 -2 -0 l 1
 -26 1 -50 23 -50 48 c 0
 -50 74 -28 99 -2 100 c 1
 109 100 l 1
 64 147 36 221 36 288 c 0
EndSplineSet
Colour: ffda6b
EndChar

StartChar: _.feh.isol
Encoding: 65564 -1 28
GlifName: _.feh.isol
Width: 934
VWidth: 1304
GlyphClass: 1
UnlinkRmOvrlpSave: 1
Flags: HMW
LayerCount: 2
Fore
SplineSet
64 181 m 0
 64 222 74 271 96 329 c 0
 98 335 107 337 113 335 c 2
 150 320 l 2
 156 318 161 311 157 301 c 0
 143 268 137 239 137 215 c 0
 137 115 242 84 372 84 c 0
 513 84 686 121 789 152 c 1
 790 164 790 177 790 189 c 0
 790 194 790 199 790 204 c 1
 758 192 724 189 680 189 c 0
 577 189 532 257 532 322 c 0
 532 328 532 334 533 340 c 0
 545 480 618 570 696 570 c 0
 808 570 870 396 870 238 c 0
 870 216 868 194 866 173 c 1
 866 172 l 1
 861 124 849 81 799 59 c 1
 702 26 519 -19 361 -19 c 0
 200 -19 64 27 64 181 c 0
683 470 m 0
 634 470 594 411 594 354 c 0
 594 298 643 290 680 290 c 0
 716 290 752 292 783 303 c 1
 767 408 725 469 683 470 c 0
EndSplineSet
Colour: ffda6b
EndChar

StartChar: _.feh.fina
Encoding: 65565 -1 29
GlifName: _.feh.fina
Width: 1050
VWidth: 1304
GlyphClass: 1
UnlinkRmOvrlpSave: 1
Flags: HMW
LayerCount: 2
Fore
SplineSet
64 181 m 0
 64 222 74 271 96 329 c 0
 98 335 107 337 113 335 c 2
 150 320 l 2
 156 318 161 311 157 301 c 0
 143 268 137 240 137 215 c 0
 137 116 241 84 371 84 c 0
 471 84 587 102 682 124 c 1
 639 170 615 220 615 258 c 0
 615 354 709 480 788 480 c 0
 858 480 935 374 935 278 c 0
 935 232 913 174 865 122 c 1
 909 108 960 100 1015 100 c 2
 1050 100 l 1
 1050 -0 l 1
 997 -0 l 2
 911 0 837 21 778 53 c 1
 678 21 509 -19 361 -19 c 0
 201 -19 64 28 64 181 c 0
678 260 m 1
 687 230 722 191 780 159 c 1
 844 196 869 239 875 253 c 1
 876 300 837 360 795 380 c 0
 791 382 786 383 781 383 c 0
 738 383 678 308 678 260 c 1
EndSplineSet
Colour: ffda6b
EndChar

StartChar: _.feh.medi
Encoding: 65566 -1 30
GlifName: _.feh.medi
Width: 524
VWidth: 1304
GlyphClass: 1
UnlinkRmOvrlpSave: 1
Flags: HMW
LayerCount: 2
Fore
SplineSet
-50 49 m 0
 -50 75 -27 100 -1 100 c 0
 64 100 118 108 161 119 c 1
 114 166 89 217 89 258 c 0
 89 354 183 480 262 480 c 0
 334 480 409 373 409 275 c 0
 409 230 386 172 339 122 c 1
 383 108 434 100 489 100 c 2
 524 100 l 1
 524 -0 l 1
 471 -0 l 2
 384 0 309 21 250 53 c 1
 193 21 120 0 30 -0 c 2
 -1 -0 l 1
 -25 1 -50 24 -50 49 c 0
152 260 m 1
 161 230 197 191 254 159 c 1
 318 196 343 239 349 253 c 1
 350 300 311 360 269 380 c 0
 265 382 261 383 256 383 c 0
 213 383 152 308 152 260 c 1
EndSplineSet
Colour: ffda6b
EndChar

StartChar: _.feh.init
Encoding: 65567 -1 31
GlifName: _.feh.init
Width: 428
VWidth: 1304
GlyphClass: 1
UnlinkRmOvrlpSave: 1
Flags: HMW
LayerCount: 2
Fore
SplineSet
-50 50 m 0
 -49 75 -26 100 -1 100 c 2
 120 100 l 2
 184 100 234 110 281 136 c 1
 283 159 284 182 284 204 c 1
 252 192 218 189 174 189 c 0
 71 189 25 257 25 322 c 0
 25 328 25 334 26 340 c 0
 38 480 112 570 190 570 c 0
 302 570 364 396 364 238 c 0
 364 216 362 194 360 173 c 1
 356 46 234 0 120 -0 c 2
 -1 -0 l 1
 -26 1 -50 24 -50 50 c 0
177 470 m 0
 128 470 88 411 88 354 c 0
 88 298 137 290 174 290 c 0
 210 290 245 292 276 303 c 1
 260 408 219 469 177 470 c 0
EndSplineSet
Colour: ffda6b
EndChar

StartChar: _.qaf.isol
Encoding: 65568 -1 32
GlifName: _.qaf.isol
Width: 759
VWidth: 1304
GlyphClass: 1
UnlinkRmOvrlpSave: 1
Flags: HMW
LayerCount: 2
Fore
SplineSet
64 -38 m 0
 64 20 77 90 108 170 c 0
 112 180 119 185 130 181 c 2
 162 168 l 1
 172 163 175 155 170 144 c 0
 147 83 137 32 137 -11 c 0
 137 -143 231 -197 338 -197 c 0
 444 -197 562 -144 613 -63 c 1
 615 -36 617 -10 617 13 c 1
 584 1 550 0 506 -0 c 0
 403 0 358 68 358 133 c 0
 358 139 358 144 359 150 c 0
 371 290 444 380 522 380 c 0
 634 380 695 206 695 49 c 0
 695 32 694 15 693 -1 c 0
 684 -189 502 -300 336 -300 c 0
 194 -300 64 -220 64 -38 c 0
508 279 m 0
 459 279 419 222 419 164 c 0
 419 109 469 100 506 100 c 0
 542 100 577 102 609 113 c 1
 592 218 550 279 508 279 c 0
EndSplineSet
Colour: ffda6b
EndChar

StartChar: _.qaf.fina
Encoding: 65569 -1 33
GlifName: _.qaf.fina
Width: 787
VWidth: 1304
GlyphClass: 1
UnlinkRmOvrlpSave: 1
Flags: HMW
LayerCount: 2
Fore
SplineSet
64 -37 m 0
 64 21 77 90 108 170 c 0
 112 180 119 185 130 181 c 2
 162 168 l 1
 172 163 175 155 170 144 c 0
 147 83 137 32 137 -11 c 0
 137 -143 231 -197 338 -197 c 0
 444 -197 562 -144 613 -63 c 1
 614 -41 615 -20 615 -0 c 1
 506 -0 l 1
 405 1 358 68 358 133 c 0
 358 139 358 144 359 150 c 0
 371 290 444 380 522 380 c 0
 622 380 682 242 693 100 c 1
 787 100 l 1
 787 -0 l 1
 693 -0 l 1
 684 -189 501 -299 335 -299 c 0
 193 -299 64 -218 64 -37 c 0
508 279 m 0
 459 279 419 222 419 164 c 0
 419 109 469 100 506 100 c 2
 611 100 l 1
 596 212 552 279 508 279 c 0
EndSplineSet
Colour: ffda6b
EndChar

StartChar: _.kaf.isol.fa
Encoding: 65570 -1 34
GlifName: _.kaf.isol.fa
Width: 1029
VWidth: 1304
GlyphClass: 1
UnlinkRmOvrlpSave: 1
Flags: HMW
LayerCount: 2
Fore
SplineSet
64 181 m 0
 64 222 74 271 96 329 c 0
 98 335 107 337 113 335 c 2
 150 320 l 2
 156 318 161 311 157 301 c 0
 143 268 137 239 137 215 c 0
 137 115 242 84 372 84 c 0
 513 84 686 121 789 152 c 1
 789 155 789 158 789 161 c 0
 789 271 674 384 540 464 c 0
 527 472 522 486 522 497 c 0
 522 500 522 503 523 505 c 2
 541 561 l 2
 551 589 550 599 600 621 c 2
 950 780 l 2
 952 781 954 782 956 782 c 0
 963 782 965 774 965 763 c 0
 965 734 946 682 923 672 c 2
 616 533 l 1
 799 405 866 290 866 199 c 0
 866 138 840 73 799 59 c 0
 702 26 519 -19 361 -19 c 0
 200 -19 64 27 64 181 c 0
EndSplineSet
Colour: ffda6b
EndChar

StartChar: _.kaf.isol.ar
Encoding: 65571 -1 35
GlifName: _.kaf.isol.ar
Width: 841
VWidth: 1304
GlyphClass: 1
UnlinkRmOvrlpSave: 1
Flags: HMW
LayerCount: 2
Fore
SplineSet
64 102 m 0
 64 114 69 122 81 122 c 0
 85 122 90 121 96 119 c 0
 139 105 216 80 285 80 c 0
 468 80 610 115 704 159 c 1
 688 700 l 2
 688 707 688 713 688 718 c 0
 688 752 695 762 764 800 c 0
 771 800 777 798 777 789 c 2
 777 177 l 1
 775 145 764 104 731 82 c 0
 650 27 515 -20 295 -20 c 0
 184 -20 131 0 97 21 c 0
 88 26 64 74 64 102 c 0
EndSplineSet
Colour: ffda6b
EndChar

StartChar: _.kaf.fina.fa
Encoding: 65572 -1 36
GlifName: _.kaf.fina.fa
Width: 1074
VWidth: 1304
GlyphClass: 1
UnlinkRmOvrlpSave: 1
Flags: HMW
LayerCount: 2
Fore
SplineSet
64 180 m 0
 64 222 73 272 94 329 c 0
 96 335 105 337 110 335 c 2
 148 320 l 2
 153 318 158 311 154 301 c 0
 141 267 136 238 136 212 c 0
 136 117 215 80 324 80 c 0
 624 80 764 136 787 146 c 1
 787 151 788 156 788 161 c 0
 788 271 672 384 538 464 c 0
 525 472 520 486 520 497 c 0
 520 500 520 503 521 505 c 2
 540 561 l 2
 550 589 549 599 599 621 c 2
 948 780 l 2
 950 781 952 782 954 782 c 0
 961 782 964 774 964 763 c 0
 964 734 944 682 921 672 c 2
 615 533 l 1
 670 495 714 457 750 421 c 0
 767 405 782 388 797 368 c 0
 879 263 936 100 1074 100 c 1
 1074 -0 l 1
 968 0 903 58 850 129 c 1
 834 95 811 67 796 58 c 0
 782 51 654 -21 318 -21 c 0
 171 -21 64 38 64 180 c 0
EndSplineSet
Colour: ffda6b
EndChar

StartChar: _.kaf.fina.ar
Encoding: 65573 -1 37
GlifName: _.kaf.fina.ar
Width: 985
VWidth: 1304
GlyphClass: 1
UnlinkRmOvrlpSave: 1
Flags: HMW
LayerCount: 2
Fore
SplineSet
64 102 m 0
 64 114 69 122 81 122 c 0
 85 122 90 121 96 119 c 0
 139 105 216 80 285 80 c 0
 468 80 610 115 704 159 c 1
 688 700 l 2
 688 707 688 713 688 718 c 0
 688 752 695 762 764 800 c 0
 771 800 777 798 777 789 c 2
 777 231 l 1
 810 158 855 100 985 100 c 1
 985 -0 l 1
 857 0 801 42 757 111 c 1
 751 100 742 89 731 82 c 0
 650 27 515 -20 295 -20 c 0
 184 -20 131 0 97 21 c 0
 88 26 64 74 64 102 c 0
EndSplineSet
Colour: ffda6b
EndChar

StartChar: _.kaf.medi
Encoding: 65574 -1 38
GlifName: _.kaf.medi
Width: 568
VWidth: 1304
GlyphClass: 1
UnlinkRmOvrlpSave: 1
Flags: HMW
LayerCount: 2
Fore
SplineSet
-50 50 m 0
 -50 75 -26 100 -1 100 c 0
 139 100 205 109 238 120 c 0
 274 132 279 142 281 146 c 0
 281 151 282 156 282 161 c 0
 282 271 166 384 32 464 c 0
 19 472 14 486 14 497 c 0
 14 500 14 503 15 505 c 2
 34 561 l 2
 44 589 43 599 93 621 c 2
 442 780 l 2
 444 781 446 782 448 782 c 0
 455 782 458 774 458 763 c 0
 458 734 438 682 415 672 c 2
 109 533 l 1
 164 495 208 457 244 421 c 0
 261 405 276 388 291 368 c 0
 373 263 430 100 568 100 c 1
 568 -0 l 1
 462 0 398 58 344 129 c 1
 296 11 197 -1 85 -1 c 0
 57 -1 28 0 -1 -0 c 0
 -26 1 -50 24 -50 50 c 0
EndSplineSet
Colour: ffda6b
EndChar

StartChar: _.kaf.init
Encoding: 65575 -1 39
GlifName: _.kaf.init
Width: 522
VWidth: 1304
GlyphClass: 1
UnlinkRmOvrlpSave: 1
Flags: HMW
LayerCount: 2
Fore
SplineSet
-50 50 m 0
 -50 75 -26 100 -1 100 c 0
 139 100 205 109 238 120 c 0
 274 132 279 142 281 146 c 0
 281 151 282 156 282 161 c 0
 282 271 166 384 32 464 c 0
 19 472 14 486 14 497 c 0
 14 500 14 503 15 505 c 2
 34 561 l 2
 44 589 43 599 93 621 c 2
 442 780 l 2
 444 781 446 782 448 782 c 0
 455 782 458 774 458 763 c 0
 458 734 438 682 415 672 c 2
 109 533 l 1
 291 405 359 291 359 200 c 0
 359 178 355 157 348 138 c 0
 301 12 199 -1 86 -1 c 0
 58 -1 28 0 -1 -0 c 0
 -26 1 -50 24 -50 50 c 0
EndSplineSet
Colour: ffda6b
EndChar

StartChar: _.kaf_hamze.isol.ar
Encoding: 65576 -1 40
GlifName: _.kaf_hamze.isol.ar
Width: 299
VWidth: 1304
GlyphClass: 1
UnlinkRmOvrlpSave: 1
Flags: HMW
LayerCount: 2
Fore
SplineSet
64 -20 m 1
 64 22 l 1
 69 22 75 21 80 21 c 0
 138 21 192 42 192 63 c 0
 192 73 178 84 146 92 c 0
 105 103 86 137 86 172 c 0
 86 215 116 259 173 259 c 0
 187 259 203 256 220 250 c 1
 220 205 l 1
 209 211 198 214 187 214 c 0
 155 214 127 193 127 171 c 0
 127 156 141 140 174 130 c 0
 213 118 235 93 235 66 c 0
 235 25 184 -20 70 -20 c 0
 68 -20 66 -20 64 -20 c 1
EndSplineSet
Colour: ffda6b
EndChar

StartChar: _.ghaf.isol
Encoding: 65577 -1 41
GlifName: _.ghaf.isol
Width: 1029
VWidth: 0
GlyphClass: 1
UnlinkRmOvrlpSave: 1
Flags: HMW
LayerCount: 2
Fore
SplineSet
64 181 m 0
 64 222 74 271 96 329 c 0
 98 335 107 337 113 335 c 2
 150 320 l 2
 156 318 161 311 157 301 c 0
 143 268 137 239 137 215 c 0
 137 115 242 84 372 84 c 0
 513 84 686 121 789 152 c 1
 789 155 789 158 789 161 c 0
 789 271 674 384 540 464 c 0
 527 472 522 486 522 497 c 0
 522 500 522 503 523 505 c 2
 541 561 l 2
 551 589 550 599 600 621 c 2
 950 780 l 2
 952 781 954 782 956 782 c 0
 963 782 965 774 965 763 c 0
 965 734 946 682 923 672 c 2
 616 533 l 1
 799 405 866 290 866 199 c 0
 866 138 840 73 799 59 c 0
 702 26 519 -19 361 -19 c 0
 200 -19 64 27 64 181 c 0
577 688 m 0
 577 705 583 729 594 734 c 2
 843 839 l 2
 844 839 845 840 846 840 c 0
 852 840 855 830 855 818 c 0
 855 802 849 783 840 778 c 2
 588 670 l 2
 587 670 586 669 585 669 c 0
 579 669 577 677 577 688 c 0
EndSplineSet
Colour: ffda6b
EndChar

StartChar: _.ghaf.fina
Encoding: 65578 -1 42
GlifName: _.ghaf.fina
Width: 1076
VWidth: 0
GlyphClass: 1
Flags: HMW
LayerCount: 2
Fore
SplineSet
64 181 m 0
 64 222 74 271 96 329 c 0
 98 335 107 337 113 335 c 2
 150 320 l 2
 156 318 161 311 157 301 c 0
 143 268 137 239 137 215 c 0
 137 115 242 84 372 84 c 0
 513 84 686 121 789 152 c 1
 789 155 789 158 789 161 c 0
 789 271 674 384 540 464 c 0
 527 472 522 486 522 497 c 0
 522 500 522 503 523 505 c 2
 541 561 l 2
 551 589 550 599 600 621 c 2
 950 780 l 2
 952 781 954 782 956 782 c 0
 963 782 965 774 965 763 c 0
 965 734 946 682 923 672 c 2
 616 533 l 1
 671 495 716 457 752 421 c 0
 769 405 784 388 799 368 c 0
 881 263 938 100 1076 100 c 1
 1076 -0 l 1
 971 0 907 56 854 127 c 1
 842 94 822 66 799 59 c 0
 702 26 519 -19 361 -19 c 0
 200 -19 64 27 64 181 c 0
577 688 m 0
 577 705 583 729 594 734 c 2
 843 839 l 2
 844 839 845 840 846 840 c 0
 852 840 855 830 855 818 c 0
 855 802 849 783 840 778 c 2
 588 670 l 2
 587 670 586 669 585 669 c 0
 579 669 577 677 577 688 c 0
EndSplineSet
Colour: ffda6b
EndChar

StartChar: _.lam.isol
Encoding: 65580 -1 44
GlifName: _.lam.isol
Width: 714
VWidth: 1304
GlyphClass: 1
UnlinkRmOvrlpSave: 1
Flags: HMW
LayerCount: 2
Fore
SplineSet
64 -62 m 0
 64 2 80 80 114 170 c 0
 118 180 126 185 138 181 c 1
 168 168 l 2
 178 163 181 155 176 144 c 0
 149 76 137 20 137 -26 c 0
 137 -151 224 -200 320 -200 c 0
 449 -199 571 -100 578 -47 c 1
 562 667 l 2
 562 680 562 690 562 699 c 0
 562 734 566 743 598 770 c 2
 621 790 l 2
 628 796 634 800 639 800 c 0
 646 800 650 793 650 779 c 2
 650 -0 l 2
 650 -175 465 -301 312 -301 c 0
 160 -301 64 -221 64 -62 c 0
EndSplineSet
Colour: ffda6b
EndChar

StartChar: _.lam.fina
Encoding: 65581 -1 45
GlifName: _.lam.fina
Width: 829
VWidth: 1304
GlyphClass: 1
UnlinkRmOvrlpSave: 1
Flags: HMW
LayerCount: 2
Fore
SplineSet
64 -62 m 0
 64 2 80 80 114 170 c 0
 118 180 126 185 138 181 c 1
 168 168 l 2
 178 163 181 155 176 144 c 0
 149 76 137 20 137 -26 c 0
 137 -151 224 -200 320 -200 c 0
 449 -199 571 -100 578 -47 c 1
 562 667 l 2
 562 680 562 690 562 699 c 0
 562 734 566 743 598 770 c 2
 621 790 l 2
 628 796 634 800 639 800 c 0
 646 800 650 793 650 779 c 2
 650 156 l 1
 651 136 678 119 709 112 c 0
 743 102 782 100 829 100 c 1
 829 -0 l 1
 806 -0 l 2
 737 0 687 12 650 34 c 1
 650 -0 l 2
 650 -175 465 -301 312 -301 c 0
 160 -301 64 -221 64 -62 c 0
EndSplineSet
Colour: ffda6b
EndChar

StartChar: _.lam.medi
Encoding: 65582 -1 46
GlifName: _.lam.medi
Width: 396
VWidth: 1304
GlyphClass: 1
UnlinkRmOvrlpSave: 1
Flags: HMW
LayerCount: 2
Fore
SplineSet
-1 100 m 0
 73 100 163 113 163 185 c 1
 152 667 l 2
 152 680 151 690 151 699 c 0
 151 734 156 743 188 770 c 2
 211 790 l 2
 218 796 224 800 229 800 c 0
 236 800 239 793 239 779 c 2
 239 156 l 1
 240 135 270 118 301 111 c 0
 331 104 359 100 396 100 c 1
 396 -0 l 1
 296 0 234 26 200 69 c 1
 164 26 99 0 -1 -0 c 0
 -26 0 -50 24 -50 50 c 0
 -50 76 -26 100 -1 100 c 0
EndSplineSet
Colour: ffda6b
EndChar

StartChar: _.lam.init
Encoding: 65583 -1 47
GlifName: _.lam.init
Width: 323
VWidth: 1304
GlyphClass: 1
UnlinkRmOvrlpSave: 1
Flags: HMW
LayerCount: 2
Fore
SplineSet
-50 49 m 0
 -50 76 -27 100 -1 100 c 0
 78 100 127 106 180 139 c 1
 191 149 l 1
 156 665 l 2
 155 683 153 696 153 707 c 0
 153 735 161 744 188 770 c 2
 210 791 l 2
 217 797 222 801 227 801 c 0
 234 801 238 794 239 780 c 2
 259 207 l 2
 259 204 259 202 259 199 c 0
 259 149 248 106 222 72 c 0
 188 26 125 0 23 -0 c 2
 -1 -0 l 2
 -25 0 -50 24 -50 49 c 0
EndSplineSet
Colour: ffda6b
EndChar

StartChar: _.mim.isol
Encoding: 65584 -1 48
GlifName: _.mim.isol
Width: 603
VWidth: 1304
GlyphClass: 1
UnlinkRmOvrlpSave: 1
Flags: HMW
LayerCount: 2
Fore
SplineSet
64 48 m 0
 64 134 100 200 219 200 c 2
 371 200 l 2
 372 200 374 200 375 200 c 0
 409 200 434 214 453 232 c 1
 418 283 348 332 304 332 c 0
 287 332 274 325 268 309 c 2
 229 212 l 1
 201 258 l 1
 242 377 l 2
 259 424 293 443 332 443 c 0
 422 443 539 342 539 250 c 0
 539 233 535 215 525 199 c 1
 505 141 451 100 391 100 c 2
 219 100 l 2
 153 100 140 77 140 43 c 0
 140 24 144 2 145 -22 c 1
 166 -281 l 2
 168 -315 138 -332 108 -350 c 0
 101 -355 95 -357 91 -357 c 0
 84 -357 81 -350 81 -339 c 2
 67 -0 l 1
 65 17 64 32 64 48 c 0
EndSplineSet
Colour: ffda6b
EndChar

StartChar: _.mim.fina
Encoding: 65585 -1 49
GlifName: _.mim.fina
Width: 688
VWidth: 1304
GlyphClass: 1
UnlinkRmOvrlpSave: 1
Flags: HMW
LayerCount: 2
Fore
SplineSet
64 83 m 0
 64 267 262 303 389 325 c 1
 403 352 l 2
 409 365 416 374 424 374 c 0
 430 374 436 369 441 358 c 0
 520 172 526 100 655 100 c 2
 688 100 l 1
 688 -0 l 1
 655 -0 l 2
 577 0 526 21 490 54 c 1
 468 -14 417 -47 364 -47 c 0
 288 -47 210 20 210 150 c 0
 210 158 210 167 211 176 c 1
 180 161 153 146 132 128 c 1
 165 -281 l 2
 167 -315 137 -332 109 -350 c 0
 102 -355 96 -357 92 -357 c 0
 84 -357 81 -350 80 -339 c 2
 65 55 l 2
 64 65 64 74 64 83 c 0
280 200 m 1
 281 103 337 53 381 53 c 0
 410 53 434 74 434 118 c 0
 434 124 433 132 432 139 c 1
 420 167 409 198 398 230 c 1
 354 220 314 211 280 200 c 1
EndSplineSet
Colour: ffda6b
EndChar

StartChar: _.mim.medi
Encoding: 65586 -1 50
GlifName: _.mim.medi
Width: 653
VWidth: 1304
GlyphClass: 1
UnlinkRmOvrlpSave: 1
Flags: HMW
LayerCount: 2
Fore
SplineSet
-50 50 m 0
 -49 76 -25 100 0 100 c 0
 103 100 163 171 220 267 c 0
 246 311 271 328 297 328 c 0
 393 328 499 100 653 100 c 1
 653 -0 l 1
 584 0 526 28 478 65 c 1
 445 6 406 -49 342 -49 c 0
 324 -49 304 -45 282 -35 c 0
 244 -19 198 11 136 49 c 1
 100 19 57 0 0 -0 c 0
 -25 0 -50 24 -50 50 c 0
204 124 m 1
 263 88 303 65 329 55 c 0
 340 51 349 49 357 49 c 0
 388 49 407 76 429 108 c 1
 370 163 326 218 289 218 c 0
 274 218 261 209 248 189 c 0
 233 167 220 145 204 124 c 1
EndSplineSet
Colour: ffda6b
EndChar

StartChar: _.mim.init
Encoding: 65587 -1 51
GlifName: _.mim.init
Width: 572
VWidth: 1304
GlyphClass: 1
UnlinkRmOvrlpSave: 1
Flags: HMW
LayerCount: 2
Fore
SplineSet
-50 50 m 0
 -49 75 -26 100 -1 100 c 0
 62 100 136 120 173 173 c 1
 252 305 l 2
 278 349 311 367 344 367 c 0
 425 367 508 259 508 148 c 0
 508 91 480 28 442 -1 c 0
 426 -13 408 -19 388 -19 c 0
 337 -19 270 15 170 64 c 1
 132 25 76 0 0 -0 c 0
 -25 0 -50 24 -50 50 c 0
428 107 m 0
 428 161 363 253 313 253 c 0
 297 253 281 243 268 221 c 2
 225 148 l 1
 320 102 374 80 402 80 c 0
 420 80 428 89 428 107 c 0
EndSplineSet
Colour: ffda6b
EndChar

StartChar: _.nun.isol
Encoding: 65588 -1 52
GlifName: _.nun.isol
Width: 758
VWidth: 1305
GlyphClass: 1
UnlinkRmOvrlpSave: 1
Flags: HMW
LayerCount: 2
Fore
SplineSet
64 -37 m 0
 64 21 77 90 108 170 c 0
 112 180 119 185 131 181 c 1
 162 168 l 2
 172 163 174 155 169 144 c 0
 146 84 136 32 136 -11 c 0
 136 -143 231 -196 338 -196 c 0
 450 -196 576 -137 621 -47 c 0
 621 -45 622 -42 622 -39 c 0
 622 15 580 157 562 210 c 0
 557 225 564 232 569 237 c 2
 619 280 l 2
 631 290 639 280 641 273 c 0
 670 188 694 100 694 14 c 0
 694 -184 506 -300 336 -300 c 0
 194 -300 64 -219 64 -37 c 0
EndSplineSet
Colour: ffda6b
EndChar

StartChar: _.nun.fina
Encoding: 65589 -1 53
GlifName: _.nun.fina
Width: 855
VWidth: 1413
GlyphClass: 1
UnlinkRmOvrlpSave: 1
Flags: HMW
LayerCount: 2
Fore
SplineSet
64 -37 m 0
 64 21 77 90 108 170 c 0
 112 180 119 185 131 181 c 1
 162 168 l 2
 172 163 174 155 169 144 c 0
 146 84 136 32 136 -11 c 0
 136 -143 232 -196 339 -196 c 0
 451 -196 576 -137 621 -47 c 0
 621 -45 622 -42 622 -39 c 0
 622 15 580 157 562 210 c 0
 557 225 565 232 570 237 c 2
 619 280 l 2
 636 294 641 273 645 262 c 0
 678 167 731 100 855 100 c 1
 855 -0 l 1
 782 0 735 10 693 42 c 1
 693 32 l 2
 693 26 693 20 693 14 c 0
 693 -184 506 -300 336 -300 c 0
 194 -300 64 -219 64 -37 c 0
EndSplineSet
Colour: ffda6b
EndChar

StartChar: _.vav.isol
Encoding: 65590 -1 54
GlifName: _.vav.isol
Width: 506
VWidth: 1304
GlyphClass: 1
UnlinkRmOvrlpSave: 1
Flags: HMW
LayerCount: 2
Fore
SplineSet
87 136 m 0
 87 235 152 381 258 381 c 0
 364 381 442 225 442 56 c 2
 442 55 l 2
 442 -115 272 -283 160 -301 c 1
 137 -301 64 -265 64 -241 c 0
 64 -238 66 -235 69 -232 c 1
 303 -147 352 -26 364 8 c 0
 365 12 364 16 364 20 c 1
 322 7 282 -1 245 -1 c 0
 154 -1 87 42 87 136 c 0
158 158 m 0
 158 113 200 100 245 100 c 0
 280 100 320 108 353 117 c 1
 330 229 278 279 247 279 c 0
 247 279 l 0
 208 279 158 203 158 158 c 0
EndSplineSet
Colour: ffda6b
EndChar

StartChar: _.vav.fina
Encoding: 65591 -1 55
GlifName: _.vav.fina
Width: 539
VWidth: 1304
GlyphClass: 1
UnlinkRmOvrlpSave: 1
Flags: HMW
LayerCount: 2
Fore
SplineSet
87 136 m 0
 87 235 152 381 258 381 c 0
 356 381 429 251 441 100 c 1
 539 100 l 1
 539 -0 l 1
 437 -0 l 1
 406 -149 260 -284 160 -301 c 1
 137 -301 64 -265 64 -241 c 0
 64 -238 66 -235 69 -232 c 1
 286 -153 344 -43 361 -0 c 1
 236 -0 l 1
 149 2 87 44 87 136 c 0
158 160 m 0
 158 117 194 103 235 100 c 1
 357 100 l 1
 336 223 279 279 247 279 c 0
 247 279 l 0
 209 279 158 205 158 160 c 0
EndSplineSet
Colour: ffda6b
EndChar

StartChar: _.dal.isol
Encoding: 65592 -1 56
GlifName: _.dal.isol
Width: 525
VWidth: 1304
GlyphClass: 1
UnlinkRmOvrlpSave: 1
Flags: HMW
LayerCount: 2
Fore
SplineSet
64 119 m 0
 64 142 61 169 86 169 c 0
 96 169 105 164 105 154 c 0
 107 100 143 80 191 80 c 0
 253 80 336 112 397 144 c 1
 390 212 337 272 285 311 c 2
 190 384 l 2
 183 389 181 395 181 400 c 0
 181 407 185 415 189 421 c 2
 215 464 l 2
 224 479 237 475 244 469 c 2
 338 396 l 1
 412 340 461 270 461 183 c 0
 461 146 449 93 430 56 c 1
 393 33 282 -21 192 -21 c 0
 122 -21 64 12 64 119 c 0
EndSplineSet
Colour: ffda6b
EndChar

StartChar: _.dal.fina
Encoding: 65593 -1 57
GlifName: _.dal.fina
Width: 625
VWidth: 1304
GlyphClass: 1
UnlinkRmOvrlpSave: 1
Flags: HMW
LayerCount: 2
Fore
SplineSet
64 119 m 0
 64 142 61 169 86 169 c 0
 96 169 105 164 105 154 c 0
 107 100 142 80 190 80 c 0
 246 80 321 106 380 135 c 1
 296 399 l 2
 292 410 290 416 301 427 c 2
 343 464 l 2
 353 473 364 471 369 455 c 2
 438 232 l 2
 466 143 507 100 609 100 c 2
 625 100 l 1
 625 -0 l 1
 595 -0 l 2
 525 0 469 22 430 56 c 1
 393 33 282 -21 192 -21 c 0
 122 -21 64 12 64 119 c 0
EndSplineSet
Colour: ffda6b
EndChar

StartChar: _.ree.isol
Encoding: 65594 -1 58
GlifName: _.ree.isol
Width: 506
VWidth: 1304
GlyphClass: 1
UnlinkRmOvrlpSave: 1
Flags: HMW
LayerCount: 2
Fore
SplineSet
64 -241 m 0
 64 -238 66 -235 69 -232 c 1
 303 -147 352 -26 364 8 c 0
 364 10 365 12 365 15 c 0
 365 30 360 60 357 71 c 0
 345 118 321 186 304 235 c 0
 300 246 304 254 313 261 c 2
 355 298 l 2
 366 307 377 309 383 293 c 0
 409 226 442 142 442 54 c 0
 442 -115 272 -281 160 -301 c 1
 137 -301 64 -265 64 -241 c 0
EndSplineSet
Colour: ffda6b
EndChar

StartChar: _.ree.fina
Encoding: 65595 -1 59
GlifName: _.ree.fina
Width: 604
VWidth: 1304
GlyphClass: 1
UnlinkRmOvrlpSave: 1
Flags: HMW
LayerCount: 2
Fore
SplineSet
64 -241 m 0
 64 -238 66 -235 69 -232 c 1
 303 -147 352 -26 364 8 c 0
 364 10 365 12 365 15 c 0
 365 30 360 60 357 71 c 0
 345 118 321 186 304 235 c 0
 300 246 304 254 313 261 c 2
 355 298 l 2
 366 307 377 309 383 293 c 0
 385 287 388 280 390 273 c 2
 396 255 l 1
 445 128 514 100 585 100 c 2
 604 100 l 1
 604 -0 l 1
 584 -0 l 2
 537 0 488 11 442 45 c 1
 436 -122 270 -283 160 -301 c 1
 137 -301 64 -265 64 -241 c 0
EndSplineSet
Colour: ffda6b
EndChar

StartChar: _.he8.isol
Encoding: 65596 -1 60
GlifName: _.he8.isol
Width: 450
VWidth: 1304
GlyphClass: 1
UnlinkRmOvrlpSave: 1
Flags: HMW
LayerCount: 2
Fore
SplineSet
64 134 m 0
 64 191 88 267 147 363 c 1
 125 381 l 2
 120 385 119 395 123 400 c 2
 158 463 l 2
 160 468 167 475 174 469 c 2
 190 454 l 1
 381 293 386 248 386 183 c 0
 386 41 269 0 210 -0 c 0
 124 0 64 44 64 134 c 0
136 147 m 0
 136 116 155 100 205 100 c 0
 260 100 308 132 318 162 c 0
 319 166 320 170 320 174 c 0
 320 218 247 276 200 317 c 1
 162 240 136 183 136 147 c 0
EndSplineSet
Colour: ffda6b
EndChar

StartChar: _.he8.fina
Encoding: 65597 -1 61
GlifName: _.he8.fina
Width: 478
VWidth: 1304
GlyphClass: 1
UnlinkRmOvrlpSave: 1
Flags: HMW
LayerCount: 2
Fore
SplineSet
64 198 m 0
 64 235 82 273 111 295 c 2
 219 375 l 1
 207 439 l 2
 206 446 209 456 214 460 c 2
 270 501 l 2
 274 505 283 501 284 495 c 2
 336 200 l 2
 346 141 378 100 478 100 c 1
 478 -0 l 1
 356 0 301 39 273 113 c 1
 238 104 209 99 184 99 c 0
 98 99 64 147 64 198 c 0
125 214 m 0
 125 198 149 191 182 191 c 0
 203 191 227 194 251 199 c 1
 230 310 l 1
 204 292 167 266 144 244 c 0
 131 232 125 222 125 214 c 0
EndSplineSet
Colour: ffda6b
EndChar

StartChar: _.he8.medi
Encoding: 65598 -1 62
GlifName: _.he8.medi
Width: 497
VWidth: 1304
GlyphClass: 1
UnlinkRmOvrlpSave: 1
Flags: HMW
LayerCount: 2
Fore
SplineSet
328 227 m 0
 328 104 243 46 138 18 c 1
 156 -29 199 -70 264 -112 c 1
 259 -94 256 -75 256 -57 c 0
 256 24 308 100 396 100 c 2
 497 100 l 1
 497 -0 l 1
 398 -0 l 2
 337 0 313 -32 313 -69 c 0
 313 -107 338 -150 371 -173 c 0
 381 -178 391 -182 402 -187 c 0
 412 -192 414 -192 408 -201 c 2
 370 -262 l 2
 368 -267 359 -273 349 -271 c 0
 191 -200 104 -106 77 6 c 1
 52 2 26 0 0 -0 c 1
 -25 1 -50 24 -50 50 c 0
 -49 75 -27 99 -2 100 c 0
 23 100 46 101 69 102 c 1
 74 204 120 316 201 437 c 1
 217 463 l 2
 226 478 234 468 239 463 c 0
 280 414 328 319 328 227 c 0
126 108 m 1
 214 120 272 141 272 188 c 0
 272 221 256 273 220 330 c 1
 166 240 133 168 126 108 c 1
EndSplineSet
Colour: ffda6b
EndChar

StartChar: _.he8.init
Encoding: 65599 -1 63
GlifName: _.he8.init
Width: 603
VWidth: 1304
GlyphClass: 1
UnlinkRmOvrlpSave: 1
Flags: HMW
LayerCount: 2
Fore
SplineSet
-50 50 m 0
 -50 76 -26 100 -1 100 c 0
 37 100 75 107 111 117 c 1
 84 148 68 182 68 219 c 0
 68 241 75 264 87 287 c 0
 102 315 125 353 153 385 c 1
 135 394 l 1
 154 495 l 1
 448 347 539 263 539 167 c 0
 539 138 531 108 518 75 c 0
 498 25 459 0 401 -0 c 0
 326 0 253 19 195 50 c 1
 137 18 68 0 -1 -0 c 0
 -26 0 -50 24 -50 50 c 0
292 242 m 0
 292 289 273 338 226 338 c 0
 188 338 150 305 137 271 c 0
 134 264 133 257 133 250 c 0
 133 216 167 185 211 159 c 1
 259 188 292 217 292 242 c 0
287 124 m 1
 330 109 375 100 402 100 c 0
 443 100 462 106 474 133 c 1
 472 180 432 222 341 279 c 1
 342 274 342 269 341 263 c 0
 341 211 321 165 287 124 c 1
EndSplineSet
Colour: ffda6b
EndChar

StartChar: _.yeh.fina
Encoding: 65600 -1 64
GlifName: _.yeh.fina
Width: 797
VWidth: 1304
GlyphClass: 1
UnlinkRmOvrlpSave: 1
Flags: HMW
LayerCount: 2
Fore
SplineSet
64 -26 m 0
 64 51 84 146 132 260 c 0
 136 270 143 275 154 271 c 2
 186 258 l 2
 196 254 199 245 194 234 c 0
 156 143 139 69 139 10 c 0
 139 -136 238 -190 347 -190 c 0
 454 -190 571 -138 614 -69 c 0
 617 -62 619 -56 619 -49 c 0
 619 -15 573 19 466 64 c 0
 454 69 449 73 449 81 c 0
 449 86 451 92 454 100 c 2
 462 123 l 2
 470 144 475 154 491 154 c 0
 497 154 505 153 514 150 c 0
 619 119 716 100 797 100 c 1
 797 -0 l 1
 765 0 728 5 689 12 c 1
 695 -2 697 -15 697 -28 c 0
 697 -68 675 -104 657 -131 c 0
 640 -158 618 -182 595 -203 c 0
 524 -266 426 -301 333 -301 c 0
 192 -301 64 -219 64 -26 c 0
EndSplineSet
Colour: ffda6b
EndChar

StartChar: _.yeh.isol
Encoding: 65601 -1 65
GlifName: _.yeh.isol
Width: 817
VWidth: 1304
GlyphClass: 1
UnlinkRmOvrlpSave: 1
Flags: HMW
LayerCount: 2
Fore
SplineSet
698 1 m 0
 698 -46 682 -88 662 -122 c 1
 662 -123 l 1
 598 -235 460 -302 333 -302 c 0
 192 -302 64 -219 64 -26 c 0
 64 51 84 146 132 260 c 0
 136 270 144 275 155 271 c 2
 187 258 l 2
 197 254 199 245 194 234 c 0
 156 143 139 69 139 10 c 0
 139 -136 239 -190 348 -190 c 0
 456 -190 573 -138 616 -67 c 0
 619 -60 621 -54 621 -48 c 0
 621 -34 611 -24 594 -20 c 0
 533 -7 381 -46 381 77 c 0
 381 97 386 121 395 151 c 0
 429 263 537 374 631 374 c 0
 676 374 718 348 747 285 c 0
 751 275 753 266 753 256 c 0
 753 237 745 221 732 221 c 0
 725 221 716 225 707 235 c 0
 687 256 661 266 633 266 c 0
 575 266 509 225 473 160 c 0
 463 143 460 129 460 119 c 0
 460 93 485 86 521 86 c 0
 522 86 525 86 526 86 c 0
 539 86 555 87 574 87 c 0
 629 87 698 77 698 1 c 0
EndSplineSet
Colour: ffda6b
EndChar

StartChar: _.hamze.isol
Encoding: 65602 -1 66
GlifName: _.hamze.isol
Width: 491
VWidth: 1304
GlyphClass: 2
Flags: HMW
LayerCount: 2
Fore
SplineSet
65 66 m 2
 64 73 64 86 71 88 c 0
 101 103 131 116 161 130 c 1
 116 172 95 224 95 274 c 0
 95 360 157 437 266 437 c 0
 294 437 325 432 358 421 c 0
 372 419 372 411 370 400 c 1
 351 353 l 2
 350 348 352 335 332 340 c 0
 317 343 302 344 288 344 c 0
 226 344 182 315 182 275 c 0
 182 246 204 211 260 177 c 1
 304 198 351 219 395 239 c 0
 404 244 419 239 420 229 c 2
 427 173 l 2
 428 166 427 153 420 151 c 2
 95 -0 l 2
 88 -4 73 1 72 8 c 2
 65 66 l 2
EndSplineSet
Colour: ffda6b
EndChar

StartChar: _.keshide.medi
Encoding: 65603 -1 67
GlifName: _.keshide.medi
Width: 235
VWidth: 1304
GlyphClass: 2
Flags: HMW
LayerCount: 2
Fore
SplineSet
-12 100 m 2
 235 100 l 1
 235 0 l 1
 -12 0 l 2
 -24 0 -33 5 -40 15 c 0
 -47 25 -50 37 -50 50 c 0
 -50 63 -47 75 -40 85 c 0
 -33 95 -24 100 -12 100 c 2
EndSplineSet
Colour: ffda6b
EndChar

StartChar: _.dot.1u
Encoding: 65604 -1 68
GlifName: _.dot.1u
Width: 0
VWidth: 1304
GlyphClass: 2
Flags: HMW
LayerCount: 2
Fore
SplineSet
6 61 m 2
 -1 68 -1 83 6 90 c 2
 61 145 l 2
 68 152 82 152 89 145 c 2
 145 90 l 2
 152 83 152 68 145 61 c 2
 89 6 l 2
 82 -1 68 -1 61 6 c 2
 6 61 l 2
EndSplineSet
Colour: ffda6b
EndChar

StartChar: _.dot.2u
Encoding: 65605 -1 69
GlifName: _.dot.2u
Width: 0
VWidth: 1304
GlyphClass: 2
UnlinkRmOvrlpSave: 1
Flags: HMW
LayerCount: 2
Fore
SplineSet
6 56 m 2
 -1 63 -1 75 6 82 c 2
 57 134 l 2
 64 141 76 141 83 134 c 2
 135 82 l 2
 142 75 142 63 135 56 c 2
 83 5 l 2
 76 -2 64 -2 57 5 c 2
 6 56 l 2
156 56 m 2
 149 63 149 75 156 82 c 2
 207 134 l 2
 214 141 226 141 233 134 c 2
 285 82 l 2
 292 75 292 63 285 56 c 2
 233 5 l 2
 226 -2 214 -2 207 5 c 2
 156 56 l 2
EndSplineSet
Colour: ffda6b
EndChar

StartChar: _.dot.3u
Encoding: 65606 -1 70
GlifName: _.dot.3u
Width: 0
VWidth: 1304
GlyphClass: 2
UnlinkRmOvrlpSave: 1
Flags: HMW
LayerCount: 2
Fore
SplineSet
6 56 m 2
 -1 63 -1 75 6 82 c 2
 57 134 l 2
 64 141 76 141 83 134 c 2
 135 82 l 2
 142 75 142 63 135 56 c 2
 83 5 l 2
 76 -2 64 -2 57 5 c 2
 6 56 l 2
87 197 m 2
 81 204 81 215 87 221 c 2
 135 269 l 2
 142 275 153 275 159 269 c 2
 207 221 l 2
 213 215 213 204 207 197 c 2
 159 150 l 2
 153 143 142 143 135 150 c 2
 87 197 l 2
156 56 m 2
 149 63 149 75 156 82 c 2
 207 134 l 2
 214 141 226 141 233 134 c 2
 285 82 l 2
 292 75 292 63 285 56 c 2
 233 5 l 2
 226 -2 214 -2 207 5 c 2
 156 56 l 2
EndSplineSet
Colour: ffda6b
EndChar

StartChar: _.dot.1d
Encoding: 65607 -1 71
GlifName: _.dot.1d
Width: 0
VWidth: 1304
GlyphClass: 2
Flags: HMW
LayerCount: 2
Fore
SplineSet
6 -61 m 2
 61 -5 l 2
 68 2 82 2 89 -5 c 2
 145 -61 l 2
 152 -68 152 -82 145 -89 c 2
 89 -144 l 2
 82 -151 68 -151 61 -144 c 2
 6 -89 l 2
 -1 -82 -1 -68 6 -61 c 2
EndSplineSet
Colour: ffda6b
EndChar

StartChar: _.dot.2d
Encoding: 65608 -1 72
GlifName: _.dot.2d
Width: 0
VWidth: 1304
GlyphClass: 2
UnlinkRmOvrlpSave: 1
Flags: HMW
LayerCount: 2
Fore
SplineSet
6 -58 m 2
 57 -6 l 2
 64 1 76 1 83 -6 c 2
 135 -58 l 2
 142 -65 142 -77 135 -84 c 2
 83 -136 l 2
 76 -143 64 -143 57 -136 c 2
 6 -84 l 2
 -1 -77 -1 -65 6 -58 c 2
156 -58 m 2
 207 -6 l 2
 214 1 226 1 233 -6 c 2
 285 -58 l 2
 292 -65 292 -77 285 -84 c 2
 233 -136 l 2
 226 -143 214 -143 207 -136 c 2
 156 -84 l 2
 149 -77 149 -65 156 -58 c 2
EndSplineSet
Colour: ffda6b
EndChar

StartChar: _.dot.3d
Encoding: 65609 -1 73
GlifName: _.dot.3d
Width: 0
VWidth: 1304
GlyphClass: 2
UnlinkRmOvrlpSave: 1
Flags: HMW
LayerCount: 2
Fore
SplineSet
6 -58 m 2
 57 -6 l 2
 64 1 76 1 83 -6 c 2
 135 -58 l 2
 142 -65 142 -77 135 -84 c 2
 83 -136 l 2
 76 -143 64 -143 57 -136 c 2
 6 -84 l 2
 -1 -77 -1 -65 6 -58 c 2
87 -208 m 2
 135 -161 l 2
 142 -154 153 -154 159 -161 c 2
 207 -208 l 2
 213 -215 213 -227 207 -233 c 2
 159 -281 l 2
 153 -287 142 -287 135 -281 c 2
 87 -233 l 2
 81 -227 81 -215 87 -208 c 2
156 -58 m 2
 207 -6 l 2
 214 1 226 1 233 -6 c 2
 285 -58 l 2
 292 -65 292 -77 285 -84 c 2
 233 -136 l 2
 226 -143 214 -143 207 -136 c 2
 156 -84 l 2
 149 -77 149 -65 156 -58 c 2
EndSplineSet
Colour: ffda6b
EndChar

StartChar: _.num.0
Encoding: 65611 -1 75
GlifName: _.num.0
Width: 395
VWidth: 1424
GlyphClass: 2
Flags: HMW
LayerCount: 2
Fore
SplineSet
204 167 m 0
 116 167 75 242 75 316 c 0
 75 392 118 468 199 468 c 0
 278 468 320 387 320 310 c 0
 320 237 283 167 204 167 c 0
146 317 m 0
 146 285 163 252 198 252 c 0
 233 252 250 284 250 316 c 0
 250 349 232 382 198 383 c 0
 164 383 146 350 146 317 c 0
EndSplineSet
Colour: ffda6b
EndChar

StartChar: _.num.1
Encoding: 65612 -1 76
GlifName: _.num.1
Width: 325
VWidth: 1331
GlyphClass: 2
Flags: HMW
LayerCount: 2
Fore
SplineSet
78 663 m 0
 71 675 78 686 85 697 c 2
 142 784 l 2
 149 795 161 785 163 780 c 0
 249 499 250 494 250 15 c 0
 250 6 245 0 234 -4 c 2
 197 -19 l 1
 176 -29 170 -14 170 -3 c 0
 170 8 170 20 170 31 c 0
 170 407 129 524 78 663 c 0
EndSplineSet
Colour: ffda6b
EndChar

StartChar: _.num.2
Encoding: 65613 -1 77
GlifName: _.num.2
Width: 610
VWidth: 1331
GlyphClass: 2
Flags: HMW
LayerCount: 2
Fore
SplineSet
78 663 m 0
 71 675 78 686 85 697 c 2
 142 784 l 2
 149 795 161 785 163 780 c 0
 180 725 194 679 205 640 c 0
 230 570 269 519 348 519 c 0
 349 519 351 519 352 519 c 0
 425 519 445 556 445 602 c 0
 445 638 433 680 422 714 c 0
 417 726 421 732 428 736 c 2
 478 769 l 2
 485 774 495 780 499 766 c 0
 524 701 535 644 535 597 c 0
 535 462 446 400 342 400 c 0
 311 400 276 407 244 421 c 1
 250 332 250 214 250 15 c 0
 250 6 245 0 234 -4 c 2
 197 -19 l 1
 176 -29 170 -14 170 -3 c 0
 170 8 170 20 170 31 c 0
 170 407 129 524 78 663 c 0
EndSplineSet
Colour: ffda6b
EndChar

StartChar: _.num.3
Encoding: 65614 -1 78
GlifName: _.num.3
Width: 836
VWidth: 1331
GlyphClass: 2
Flags: HMW
LayerCount: 2
Fore
SplineSet
78 663 m 0
 71 675 78 686 85 697 c 2
 142 784 l 2
 149 795 161 785 163 780 c 0
 175 737 186 696 196 657 c 0
 221 578 241 519 326 519 c 0
 327 519 329 519 330 519 c 0
 403 519 423 556 423 602 c 0
 423 638 410 680 399 714 c 0
 394 726 399 732 406 736 c 2
 456 769 l 2
 463 774 473 780 477 766 c 0
 502 702 513 646 513 599 c 0
 513 586 512 573 510 561 c 1
 539 541 567 532 591 532 c 0
 637 532 670 567 670 635 c 0
 670 664 664 699 651 740 c 0
 647 752 651 758 658 763 c 2
 708 795 l 2
 715 800 725 805 729 791 c 0
 751 734 761 681 761 634 c 0
 761 501 684 417 589 417 c 0
 550 417 508 431 468 461 c 1
 432 419 378 400 319 400 c 0
 292 400 265 406 239 417 c 1
 248 328 252 240 252 143 c 0
 252 102 251 60 250 15 c 0
 250 6 245 0 234 -4 c 2
 197 -19 l 1
 176 -29 170 -14 170 -3 c 0
 170 1 170 7 170 11 c 0
 170 307 130 522 78 663 c 0
EndSplineSet
Colour: ffda6b
EndChar

StartChar: _.num.4.fa
Encoding: 65615 -1 79
GlifName: _.num.4.fa
Width: 701
VWidth: 1331
GlyphClass: 2
Flags: HMW
LayerCount: 2
Fore
SplineSet
231 608 m 1
 235 708 291 798 420 798 c 0
 491 798 567 770 615 716 c 1
 626 710 619 702 614 695 c 2
 591 662 l 2
 586 656 579 654 568 661 c 0
 516 692 473 705 437 705 c 0
 360 705 319 645 319 583 c 0
 319 553 328 523 346 498 c 1
 384 478 425 468 469 468 c 0
 505 468 544 475 582 490 c 0
 594 495 603 493 605 486 c 2
 621 439 l 2
 623 430 632 424 620 418 c 0
 557 385 495 370 437 370 c 0
 359 370 285 400 237 439 c 1
 248 343 252 248 252 143 c 0
 252 102 251 60 250 15 c 0
 250 6 245 0 234 -4 c 2
 197 -19 l 1
 176 -29 170 -14 170 -3 c 0
 170 1 170 7 170 11 c 0
 170 307 130 522 78 663 c 0
 71 675 78 686 85 697 c 2
 142 784 l 2
 149 795 161 785 163 780 c 0
 172 750 181 721 188 693 c 0
 199 661 214 633 231 608 c 1
EndSplineSet
Colour: ffda6b
EndChar

StartChar: _.num.5.fa
Encoding: 65617 -1 81
GlifName: _.num.5.fa
Width: 744
VWidth: 1331
GlyphClass: 2
Flags: HMW
LayerCount: 2
Fore
SplineSet
75 182 m 0
 75 290 131 446 288 652 c 1
 273 664 259 677 244 688 c 0
 222 705 232 715 234 720 c 2
 271 779 l 2
 275 785 278 795 287 795 c 0
 292 795 299 792 308 784 c 0
 468 650 669 427 669 188 c 0
 669 186 669 184 669 182 c 0
 669 51 584 -6 504 -6 c 0
 445 -6 387 25 367 80 c 1
 330 27 276 0 224 0 c 0
 147 0 75 60 75 182 c 0
508 128 m 0
 546 128 578 150 578 184 c 0
 578 284 515 433 362 585 c 1
 218 399 171 275 171 202 c 0
 171 143 201 116 235 116 c 0
 278 116 328 158 330 230 c 1
 330 237 l 2
 330 242 331 251 345 255 c 2
 401 269 l 1
 411 273 415 259 415 257 c 2
 415 248 l 1
 417 159 465 128 508 128 c 0
EndSplineSet
Colour: ffda6b
EndChar

StartChar: _.num.6.fa
Encoding: 65619 -1 83
GlifName: _.num.6.fa
Width: 722
VWidth: 1331
GlyphClass: 2
Flags: HMW
LayerCount: 2
Fore
SplineSet
79 38 m 0
 170 154 249 251 336 340 c 1
 208 365 130 468 130 570 c 0
 130 685 229 799 467 799 c 0
 470 799 474 799 477 799 c 1
 489 804 491 794 495 785 c 2
 508 748 l 2
 512 741 509 731 497 729 c 0
 299 676 234 614 234 561 c 0
 234 495 335 444 412 444 c 0
 431 444 449 447 463 454 c 1
 512 496 567 536 629 578 c 0
 633 580 648 581 647 569 c 2
 636 464 l 2
 635 452 633 439 621 434 c 0
 569 403 512 362 449 309 c 0
 353 228 244 117 130 -26 c 0
 124 -33 110 -42 99 -21 c 2
 80 15 l 1
 74 24 74 32 79 38 c 0
EndSplineSet
Colour: ffda6b
EndChar

StartChar: _.num.7
Encoding: 65621 -1 85
GlifName: _.num.7
Width: 669
VWidth: 1331
GlyphClass: 2
Flags: HMW
LayerCount: 2
Fore
SplineSet
80 646 m 0
 71 657 76 668 82 679 c 1
 124 775 l 2
 129 786 143 779 145 775 c 0
 239 585 295 431 334 252 c 1
 373 431 430 585 524 775 c 0
 526 779 539 786 545 775 c 1
 587 679 l 1
 593 668 598 657 589 646 c 0
 515 516 380 272 378 21 c 0
 378 6 335 -17 310 -17 c 0
 299 -17 291 -13 291 -1 c 2
 291 21 l 1
 290 272 154 516 80 646 c 0
EndSplineSet
Colour: ffda6b
EndChar

StartChar: _.num.8
Encoding: 65622 -1 86
GlifName: _.num.8
Width: 669
VWidth: 1331
GlyphClass: 2
Flags: HMW
LayerCount: 2
Fore
SplineSet
80 118 m 0
 154 248 290 493 291 743 c 1
 291 766 l 2
 291 778 299 782 310 782 c 0
 335 782 378 758 378 743 c 0
 380 493 515 248 589 118 c 0
 598 108 593 97 587 85 c 2
 545 -11 l 1
 539 -22 526 -15 524 -10 c 0
 430 180 373 335 334 512 c 1
 295 335 239 180 145 -10 c 0
 143 -15 129 -22 124 -11 c 2
 82 85 l 2
 76 97 71 108 80 118 c 0
EndSplineSet
Colour: ffda6b
EndChar

StartChar: _.num.9
Encoding: 65623 -1 87
GlifName: _.num.9
Width: 604
VWidth: 1331
GlyphClass: 2
Flags: HMW
LayerCount: 2
Fore
SplineSet
75 532 m 0
 75 654 167 798 267 800 c 1
 421 798 441 550 448 426 c 1
 464 277 493 159 526 69 c 0
 533 58 525 48 518 37 c 2
 462 -51 l 2
 455 -62 442 -52 441 -47 c 0
 392 111 370 241 360 378 c 1
 321 369 286 365 256 365 c 0
 124 365 75 443 75 532 c 0
152 552 m 0
 152 511 186 475 291 475 c 0
 310 475 330 477 353 479 c 1
 346 560 322 678 251 679 c 0
 219 679 152 610 152 552 c 0
EndSplineSet
Colour: ffda6b
EndChar

StartChar: _.sing.backslash
Encoding: 65624 -1 88
GlifName: _.sing.backslash
Width: 503
VWidth: 1197
GlyphClass: 2
Flags: HMW
LayerCount: 2
Fore
SplineSet
50 800 m 1
 151 800 l 1
 453 -1 l 1
 352 -1 l 1
 50 800 l 1
EndSplineSet
Colour: ffda6b
EndChar

StartChar: _.sing.slash
Encoding: 65625 -1 89
GlifName: _.sing.slash
Width: 503
VWidth: 1197
GlyphClass: 2
Flags: HMW
LayerCount: 2
Fore
SplineSet
50 -1 m 1
 352 800 l 1
 453 800 l 1
 151 -1 l 1
 50 -1 l 1
EndSplineSet
Colour: ffda6b
EndChar

StartChar: _.sing.tajob
Encoding: 65626 -1 90
GlifName: _.sing.tajob
Width: 265
VWidth: 1197
GlyphClass: 2
Flags: HMW
LayerCount: 2
Fore
SplineSet
50 84 m 1
 132 166 l 1
 215 84 l 1
 132 1 l 1
 50 84 l 1
76 795 m 1
 174 795 l 1
 158 260 l 1
 92 260 l 1
 76 795 l 1
EndSplineSet
Colour: ffda6b
EndChar

StartChar: _.sing.soal
Encoding: 65627 -1 91
GlifName: _.sing.soal
Width: 481
VWidth: 1304
GlyphClass: 2
Flags: HMW
LayerCount: 2
Fore
SplineSet
50 612 m 0
 50 733 154 802 251 802 c 0
 335 802 416 754 431 657 c 1
 431 541 l 1
 335 541 l 1
 335 631 329 700 231 700 c 0
 192 700 151 674 151 625 c 0
 151 598 162 565 192 525 c 0
 273 419 311 403 311 253 c 1
 204 253 l 1
 204 282 l 2
 204 423 50 482 50 612 c 0
178 84 m 1
 261 166 l 1
 343 84 l 1
 261 1 l 1
 178 84 l 1
EndSplineSet
Colour: ffda6b
EndChar

StartChar: _.sing.beezafeh
Encoding: 65628 -1 92
GlifName: _.sing.beezafeh
Width: 500
VWidth: 1352
GlyphClass: 2
Flags: HMW
LayerCount: 2
Fore
SplineSet
50 250 m 1
 50 351 l 1
 200 351 l 1
 200 501 l 1
 300 501 l 1
 300 351 l 1
 450 351 l 1
 450 250 l 1
 300 250 l 1
 300 101 l 1
 200 101 l 1
 200 250 l 1
 50 250 l 1
EndSplineSet
Colour: ffda6b
EndChar

StartChar: _.sing.menha
Encoding: 65629 -1 93
GlifName: _.sing.menha
Width: 500
VWidth: 0
GlyphClass: 2
Flags: HMW
LayerCount: 2
Fore
SplineSet
50 250 m 1
 50 351 l 1
 450 351 l 1
 450 250 l 1
 50 250 l 1
EndSplineSet
Colour: ffda6b
EndChar

StartChar: _.sing.khateh_tire
Encoding: 65630 -1 94
GlifName: _.sing.khateh_tire
Width: 200
VWidth: 0
GlyphClass: 2
Flags: HMW
LayerCount: 2
Fore
SplineSet
50 -100 m 1
 50 300 l 1
 150 300 l 1
 150 -100 l 1
 50 -100 l 1
50 401 m 1
 50 801 l 1
 150 801 l 1
 150 401 l 1
 50 401 l 1
EndSplineSet
Colour: ffda6b
EndChar

StartChar: _.sing.virgul
Encoding: 65631 -1 95
GlifName: _.sing.virgul
Width: 232
VWidth: 1197
GlyphClass: 2
Flags: HMW
LayerCount: 2
Fore
SplineSet
121 -0 m 0
 73 0 50 53 50 99 c 0
 50 160 88 228 145 283 c 1
 182 246 l 1
 162 225 134 195 134 161 c 0
 134 140 148 119 167 100 c 0
 176 90 182 75 182 60 c 0
 182 27 154 0 121 -0 c 0
EndSplineSet
Colour: ffda6b
EndChar

StartChar: _.sing.dot_virgul
Encoding: 65632 -1 96
GlifName: _.sing.dot_virgul
Width: 265
VWidth: 1304
GlyphClass: 2
Flags: HMW
LayerCount: 2
Fore
SplineSet
50 84 m 1
 132 166 l 1
 215 84 l 1
 132 1 l 1
 50 84 l 1
135 250 m 0
 87 250 64 304 64 349 c 0
 64 410 101 478 158 533 c 1
 195 496 l 1
 175 475 148 445 148 411 c 0
 148 390 161 368 180 349 c 0
 189 339 195 326 195 310 c 0
 195 277 168 250 135 250 c 0
EndSplineSet
Colour: ffda6b
EndChar

StartChar: _.sing.2noqte
Encoding: 65633 -1 97
GlifName: _.sing.2noqte
Width: 265
VWidth: 1352
GlyphClass: 2
Flags: HMW
LayerCount: 2
Fore
SplineSet
50 84 m 1
 132 166 l 1
 215 84 l 1
 132 1 l 1
 50 84 l 1
50 324 m 1
 132 407 l 1
 215 324 l 1
 132 241 l 1
 50 324 l 1
EndSplineSet
Colour: ffda6b
EndChar

StartChar: _.sing.noqte
Encoding: 65634 -1 98
GlifName: _.sing.noqte
Width: 266
VWidth: 1352
GlyphClass: 2
Flags: HMW
LayerCount: 2
Fore
SplineSet
50 84 m 1
 134 166 l 1
 216 84 l 1
 134 1 l 1
 50 84 l 1
EndSplineSet
Colour: ffda6b
EndChar

StartChar: _.sing.gheiomeh.right
Encoding: 65635 -1 99
GlifName: _.sing.gheiomeh.right
Width: 527
VWidth: 1352
GlyphClass: 2
Flags: HMW
LayerCount: 2
Fore
SplineSet
50 200 m 0
 50 302 92 405 173 500 c 1
 247 433 l 1
 185 346 153 267 153 191 c 0
 153 115 185 42 247 -32 c 1
 173 -97 l 1
 91 -2 50 99 50 200 c 0
280 200 m 0
 280 302 322 405 403 500 c 1
 477 433 l 1
 414 346 383 268 383 192 c 0
 383 116 415 43 477 -32 c 1
 403 -97 l 1
 321 -2 280 99 280 200 c 0
EndSplineSet
Colour: ffda6b
EndChar

StartChar: _.sing.gheiomeh.left
Encoding: 65636 -1 100
GlifName: _.sing.gheiomeh.left
Width: 527
VWidth: 1352
GlyphClass: 2
Flags: HMW
LayerCount: 2
Fore
SplineSet
50 -32 m 1
 112 43 144 116 144 192 c 0
 144 268 113 346 50 433 c 1
 124 500 l 1
 205 405 247 302 247 200 c 0
 247 99 206 -2 124 -97 c 1
 50 -32 l 1
280 -32 m 1
 342 43 374 116 374 192 c 0
 374 268 343 346 280 433 c 1
 354 500 l 1
 435 405 477 302 477 200 c 0
 477 99 436 -2 354 -97 c 1
 280 -32 l 1
EndSplineSet
Colour: ffda6b
EndChar

StartChar: _.sing.parantez.right
Encoding: 65637 -1 101
GlifName: _.sing.parantez.right
Width: 329
VWidth: 1352
GlyphClass: 2
Flags: HMW
LayerCount: 2
Fore
SplineSet
50 301 m 0
 50 441 112 580 237 759 c 1
 279 719 l 1
 193 595 149 446 149 298 c 0
 149 150 193 2 279 -122 c 1
 238 -160 l 1
 113 20 50 161 50 301 c 0
EndSplineSet
Colour: ffda6b
EndChar

StartChar: _.sing.parantez.left
Encoding: 65638 -1 102
GlifName: _.sing.parantez.left
Width: 329
VWidth: 1352
GlyphClass: 2
Flags: HMW
LayerCount: 2
Fore
SplineSet
50 -122 m 1
 136 2 179 150 179 298 c 0
 179 446 136 595 50 719 c 1
 92 759 l 1
 217 580 279 441 279 301 c 0
 279 161 216 20 91 -160 c 1
 50 -122 l 1
EndSplineSet
Colour: ffda6b
EndChar

StartChar: _.sing.parantez_tazeeni.right
Encoding: 65639 -1 103
GlifName: _.sing.parantez_tazeeni.right
Width: 503
VWidth: 0
GlyphClass: 2
Flags: HMW
LayerCount: 2
Fore
SplineSet
50 342 m 1
 72 410 l 1
 123 393 l 2
 139 388 155 381 172 375 c 0
 179 371 187 367 196 365 c 1
 200 393 206 423 216 453 c 1
 216 513 l 1
 238 513 l 1
 269 589 316 669 379 759 c 1
 421 719 l 1
 347 612 305 488 294 361 c 1
 321 372 351 384 379 393 c 2
 429 410 l 1
 453 342 l 1
 401 326 l 2
 369 316 333 308 299 298 c 1
 322 272 344 244 365 216 c 2
 397 173 l 1
 339 132 l 1
 309 175 l 2
 307 180 302 183 300 187 c 1
 316 77 357 -28 421 -122 c 1
 380 -160 l 1
 288 -27 229 85 204 191 c 1
 202 186 198 180 194 175 c 2
 162 132 l 1
 105 173 l 1
 136 216 l 1
 154 239 174 263 192 285 c 1
 192 301 l 1
 161 308 132 316 102 326 c 2
 50 342 l 1
EndSplineSet
Colour: ffda6b
EndChar

StartChar: _.sing.koroshe.right
Encoding: 65641 -1 105
GlifName: _.sing.koroshe.right
Width: 306
VWidth: 1197
GlyphClass: 2
Flags: HMW
LayerCount: 2
Fore
SplineSet
50 -202 m 1
 50 798 l 1
 256 798 l 1
 256 694 l 1
 150 694 l 1
 150 -97 l 1
 256 -97 l 1
 256 -202 l 1
 50 -202 l 1
EndSplineSet
Colour: ffda6b
EndChar

StartChar: _.sing.koroshe.left
Encoding: 65642 -1 106
GlifName: _.sing.koroshe.left
Width: 306
VWidth: 1197
GlyphClass: 2
Flags: HMW
LayerCount: 2
Fore
SplineSet
50 -99 m 1
 156 -99 l 1
 156 693 l 1
 50 693 l 1
 50 798 l 1
 256 798 l 1
 256 -202 l 1
 50 -202 l 1
 50 -99 l 1
EndSplineSet
Colour: ffda6b
EndChar

StartChar: _.sing.akolad.right
Encoding: 65643 -1 107
GlifName: _.sing.akolad.right
Width: 402
VWidth: 1197
GlyphClass: 2
Flags: HMW
LayerCount: 2
Fore
SplineSet
50 251 m 1
 50 349 l 1
 118 349 150 382 150 464 c 2
 150 620 l 2
 150 701 149 800 352 800 c 1
 352 700 l 1
 270 700 249 674 249 619 c 2
 249 474 l 2
 249 421 232 321 178 300 c 1
 232 279 249 180 249 127 c 2
 249 -19 l 2
 249 -73 270 -100 352 -100 c 1
 352 -200 l 1
 149 -200 150 -101 150 -20 c 2
 150 136 l 2
 150 218 118 251 50 251 c 1
EndSplineSet
Colour: ffda6b
EndChar

StartChar: _.sing.akolad.left
Encoding: 65644 -1 108
GlifName: _.sing.akolad.left
Width: 402
VWidth: 1197
GlyphClass: 2
Flags: HMW
LayerCount: 2
Fore
SplineSet
50 -100 m 1
 131 -100 151 -73 151 -19 c 2
 151 127 l 2
 151 180 169 279 224 300 c 1
 169 321 151 421 151 474 c 2
 151 619 l 2
 151 674 131 700 50 700 c 1
 50 800 l 1
 252 800 252 701 252 620 c 2
 252 464 l 2
 252 382 284 349 352 349 c 1
 352 251 l 1
 284 251 252 218 252 136 c 2
 252 -20 l 2
 252 -101 252 -200 50 -200 c 1
 50 -100 l 1
EndSplineSet
Colour: ffda6b
EndChar

StartChar: _.mark.maad
Encoding: 65645 -1 109
GlifName: _.mark.maad
Width: 0
VWidth: 1352
GlyphClass: 2
Flags: HMW
LayerCount: 2
Fore
SplineSet
0 26 m 1
 32 92 l 2
 44 119 64 138 89 138 c 0
 95 138 101 137 107 135 c 0
 146 124 179 119 210 119 c 0
 259 119 302 131 359 148 c 1
 366 74 l 1
 310 55 261 42 210 42 c 0
 172 42 131 49 86 65 c 1
 75 45 65 22 54 -0 c 1
 0 26 l 1
EndSplineSet
Colour: ffda6b
EndChar

StartChar: _.mark.fatheh
Encoding: 65646 -1 110
GlifName: _.mark.fatheh
Width: 0
VWidth: 2310
GlyphClass: 2
Flags: HMW
LayerCount: 2
Fore
SplineSet
0 45 m 1
 256 165 l 1
 278 114 l 1
 23 -5 l 1
 0 45 l 1
EndSplineSet
Colour: ffda6b
EndChar

StartChar: _.mark.kasreh
Encoding: 65647 -1 111
GlifName: _.mark.kasreh
Width: 0
VWidth: 2384
GlyphClass: 2
Flags: HMW
LayerCount: 2
Fore
SplineSet
0 -125 m 1
 256 -6 l 1
 278 -56 l 1
 23 -175 l 1
 0 -125 l 1
EndSplineSet
Colour: ffda6b
EndChar

StartChar: _.mark.zameh
Encoding: 65648 -1 112
GlifName: _.mark.zameh
Width: 0
VWidth: 2277
GlyphClass: 2
Flags: HMW
LayerCount: 2
Fore
SplineSet
202 287 m 0
 247 287 279 243 279 196 c 0
 279 155 255 109 193 80 c 2
 23 1 l 1
 0 50 l 1
 143 117 l 1
 124 139 111 165 111 193 c 0
 111 242 146 287 202 287 c 0
165 193 m 0
 165 179 172 164 179 155 c 2
 191 140 l 1
 215 153 229 173 229 191 c 0
 229 206 219 220 197 228 c 1
 173 223 165 208 165 193 c 0
EndSplineSet
Colour: ffda6b
EndChar

StartChar: _.mark.tanvin_fatheh
Encoding: 65649 -1 113
GlifName: _.mark.tanvin_fatheh
Width: 0
VWidth: 2280
GlyphClass: 2
Flags: HMW
LayerCount: 2
Fore
SplineSet
0 49 m 1
 256 168 l 1
 279 118 l 1
 23 -0 l 1
 0 49 l 1
0 170 m 1
 256 289 l 1
 279 240 l 1
 23 120 l 1
 0 170 l 1
EndSplineSet
Colour: ffda6b
EndChar

StartChar: _.mark.tanvin_kasreh
Encoding: 65650 -1 114
GlifName: _.mark.tanvin_kasreh
Width: 0
VWidth: 2413
GlyphClass: 2
Flags: HMW
LayerCount: 2
Fore
SplineSet
0 -120 m 1
 256 -1 l 1
 279 -51 l 1
 23 -170 l 1
 0 -120 l 1
0 -240 m 1
 256 -122 l 1
 279 -171 l 1
 23 -291 l 1
 0 -240 l 1
EndSplineSet
Colour: ffda6b
EndChar

StartChar: _.mark.tanvin_zameh
Encoding: 65651 -1 115
GlifName: _.mark.tanvin_zameh
Width: 0
VWidth: 2273
GlyphClass: 2
Flags: HMW
LayerCount: 2
Fore
SplineSet
226 287 m 0
 271 287 304 243 304 196 c 0
 304 155 280 109 218 80 c 2
 48 1 l 1
 25 50 l 1
 66 70 l 1
 70 79 73 90 73 100 c 0
 73 114 68 125 56 125 c 0
 52 125 48 125 43 122 c 2
 25 111 l 1
 0 151 l 1
 21 164 l 2
 32 170 42 172 51 172 c 0
 88 172 109 130 109 100 c 0
 109 96 109 93 108 90 c 1
 167 117 l 1
 148 139 136 165 136 193 c 0
 136 242 170 287 226 287 c 0
189 193 m 0
 189 179 196 164 203 155 c 2
 215 140 l 1
 239 153 253 173 253 191 c 0
 253 206 244 220 222 228 c 1
 198 223 189 208 189 193 c 0
EndSplineSet
Colour: ffda6b
EndChar

StartChar: _.mark.tashdid
Encoding: 65652 -1 116
GlifName: _.mark.tashdid
Width: 0
VWidth: 1833
GlyphClass: 2
Flags: HMW
LayerCount: 2
Fore
SplineSet
0 88 m 0
 0 92 0 96 0 100 c 2
 7 168 l 1
 51 164 l 1
 47 114 l 2
 47 111 47 109 47 106 c 0
 47 73 67 57 88 57 c 0
 110 57 133 77 133 116 c 2
 133 166 l 1
 177 166 l 1
 177 117 l 1
 179 73 199 55 218 55 c 0
 237 55 255 73 255 103 c 2
 255 164 l 1
 301 168 l 1
 301 101 l 2
 302 32 256 0 216 0 c 0
 189 0 164 14 157 40 c 1
 147 15 115 0 83 -0 c 0
 42 0 0 25 0 88 c 0
EndSplineSet
Colour: ffda6b
EndChar

StartChar: _.mark.hamze
Encoding: 65653 -1 117
GlifName: _.mark.hamze
Width: 0
VWidth: 1841
GlyphClass: 2
Flags: HMW
LayerCount: 2
Fore
SplineSet
0 49 m 1
 74 84 l 1
 47 106 34 138 34 170 c 0
 34 228 75 286 147 286 c 0
 167 286 189 282 213 272 c 1
 202 223 l 1
 185 227 170 229 157 229 c 0
 107 229 84 201 84 171 c 0
 84 146 99 121 127 108 c 1
 256 168 l 1
 278 118 l 1
 23 -0 l 1
 0 49 l 1
EndSplineSet
Colour: ffda6b
EndChar

StartChar: _.mark.sakon
Encoding: 65654 -1 118
GlifName: _.mark.sakon
Width: 0
VWidth: 2099
GlyphClass: 2
Flags: HMW
LayerCount: 2
Fore
SplineSet
81 -0 m 0
 35 0 0 39 0 85 c 0
 0 132 34 168 81 168 c 0
 122 168 144 146 158 118 c 0
 162 108 164 97 164 85 c 0
 164 47 142 18 113 7 c 0
 103 2 93 0 81 -0 c 0
80 120 m 0
 60 120 43 104 43 84 c 0
 43 64 60 47 80 47 c 0
 100 47 118 63 118 84 c 0
 118 104 100 120 80 120 c 0
EndSplineSet
Colour: ffda6b
EndChar

StartChar: _.mark.alef
Encoding: 65655 -1 119
GlifName: _.mark.alef
Width: 0
VWidth: 2091
GlyphClass: 2
Flags: HMW
LayerCount: 2
Fore
SplineSet
0 216 m 1
 50 235 l 1
 81 151 89 92 89 -3 c 1
 41 -3 l 1
 41 83 28 140 0 216 c 1
EndSplineSet
Colour: ffda6b
EndChar

StartChar: _.sing.momaiez
Encoding: 65656 -1 120
GlifName: _.sing.momaiez
Width: 408
VWidth: 1352
GlyphClass: 2
Flags: HMW
LayerCount: 2
Fore
SplineSet
50 -173 m 1
 263 412 l 1
 358 378 l 1
 144 -207 l 1
 50 -173 l 1
EndSplineSet
Colour: ffda6b
EndChar

StartChar: _.sing.hezare
Encoding: 65657 -1 121
GlifName: _.sing.hezare
Width: 222
VWidth: 1197
GlyphClass: 2
Flags: HMW
LayerCount: 2
Fore
SplineSet
50 900 m 1
 172 900 l 1
 130 700 l 1
 91 700 l 1
 50 900 l 1
EndSplineSet
Colour: ffda6b
EndChar

StartChar: _.sing.darsad
Encoding: 65658 -1 122
GlifName: _.sing.darsad
Width: 665
VWidth: 1197
GlyphClass: 2
Flags: HMW
LayerCount: 2
Fore
SplineSet
50 587 m 1
 132 670 l 1
 215 587 l 1
 132 505 l 1
 50 587 l 1
131 -1 m 1
 433 800 l 1
 534 800 l 1
 232 -1 l 1
 131 -1 l 1
449 244 m 1
 533 326 l 1
 615 244 l 1
 533 161 l 1
 449 244 l 1
EndSplineSet
Colour: ffda6b
EndChar

StartChar: _.sing.mosavi
Encoding: 65659 -1 123
GlifName: _.sing.mosavi
Width: 500
VWidth: 1197
GlyphClass: 2
Flags: HMW
LayerCount: 2
Fore
SplineSet
50 200 m 1
 50 300 l 1
 450 300 l 1
 450 200 l 1
 50 200 l 1
50 400 m 1
 50 501 l 1
 449 501 l 1
 449 400 l 1
 50 400 l 1
EndSplineSet
Colour: ffda6b
EndChar

StartChar: _.beh_k.init
Encoding: 65661 -1 125
GlifName: _.beh_k.init
Width: 325
VWidth: 1197
GlyphClass: 2
UnlinkRmOvrlpSave: 1
Flags: HMW
LayerCount: 2
Fore
SplineSet
-50 50 m 0
 -50 76 -26 100 -1 100 c 0
 91 100 140 111 178 139 c 0
 181 142 181 147 181 155 c 0
 181 192 156 280 141 327 c 0
 136 342 143 349 149 354 c 2
 199 396 l 1
 210 407 219 396 220 390 c 0
 246 318 261 255 261 201 c 0
 261 179 259 158 253 139 c 1
 253 134 l 1
 219 22 127 0 0 -0 c 0
 -25 0 -50 24 -50 50 c 0
EndSplineSet
Colour: ffda6b
EndChar

StartChar: _.beh_k.medi
Encoding: 65662 -1 126
GlifName: _.beh_k.medi
Width: 439
VWidth: 1304
GlyphClass: 2
UnlinkRmOvrlpSave: 1
Flags: HMW
LayerCount: 2
Fore
SplineSet
-50 49 m 0
 -50 76 -27 100 -1 100 c 0
 48 100 86 102 120 112 c 0
 162 126 180 152 180 184 c 2
 180 290 l 2
 180 304 180 315 200 320 c 2
 234 329 l 2
 249 333 259 327 259 310 c 2
 259 157 l 2
 259 136 287 119 318 112 c 0
 357 101 398 100 439 100 c 1
 439 -0 l 1
 415 -0 l 2
 315 0 254 26 220 69 c 1
 184 26 123 0 23 -0 c 2
 -1 -0 l 2
 -25 0 -50 24 -50 49 c 0
EndSplineSet
Colour: ffda6b
EndChar

StartChar: _.sing.3noqte
Encoding: 65663 -1 127
GlifName: _.sing.3noqte
Width: 716
VWidth: 1304
GlyphClass: 2
Flags: HMW
LayerCount: 2
Fore
SplineSet
50 84 m 1
 134 166 l 1
 215 84 l 1
 134 1 l 1
 50 84 l 1
280 84 m 1
 364 166 l 1
 445 84 l 1
 364 1 l 1
 280 84 l 1
501 84 m 1
 583 166 l 1
 666 84 l 1
 583 1 l 1
 501 84 l 1
EndSplineSet
Colour: ffda6b
EndChar

StartChar: s.khat_tire
Encoding: 8208 8208 138
GlifName: s.khat_tire
Width: 504
VWidth: 0
GlyphClass: 2
Flags: HMW
LayerCount: 2
Fore
SplineSet
55 229 m 1
 55 307 l 1
 451 307 l 1
 451 229 l 1
 55 229 l 1
EndSplineSet
Colour: d7d7d7
EndChar

StartChar: s.zwj
Encoding: 8205 8205 174
GlifName: s.zwj
Width: 0
VWidth: 1331
GlyphClass: 2
Flags: HMW
LayerCount: 2
Fore
SplineSet
25 -327 m 1
 -25 -327 l 1
 -25 579 l 1
 -111 491 l 1
 -141 521 l 1
 -30 631 l 1
 -141 740 l 1
 -111 772 l 1
 0 660 l 1
 111 772 l 1
 141 740 l 1
 30 631 l 1
 141 521 l 1
 111 491 l 1
 25 579 l 1
 25 -327 l 1
EndSplineSet
Colour: d7d7d7
EndChar

StartChar: s.tagsim
Encoding: 247 247 182
GlifName: s.tagsim
Width: 564
VWidth: 1278
GlyphClass: 2
Flags: HMW
LayerCount: 2
Fore
SplineSet
59 352 m 1
 59 429 l 1
 506 429 l 1
 506 352 l 1
 59 352 l 1
234 204 m 1
 234 299 l 1
 330 299 l 1
 330 204 l 1
 234 204 l 1
234 482 m 1
 234 577 l 1
 330 577 l 1
 330 482 l 1
 234 482 l 1
EndSplineSet
Colour: d7d7d7
EndChar

StartChar: s.zwnj
Encoding: 8204 8204 215
GlifName: s.zwnj
Width: 0
VWidth: 1331
GlyphClass: 2
Flags: HMW
LayerCount: 2
Fore
SplineSet
-25 -308 m 1
 -25 710 l 1
 25 710 l 1
 25 -308 l 1
 -25 -308 l 1
EndSplineSet
Colour: d7d7d7
EndChar

StartChar: s.dotted_circle
Encoding: 9676 9676 220
GlifName: s.dotted_circle
Width: 576
VWidth: 1890
GlyphClass: 2
Flags: HMW
LayerCount: 2
Fore
SplineSet
60 181 m 0
 60 196 67 203 82 203 c 0
 97 203 104 196 104 182 c 2
 104 180 l 2
 104 166 97 159 82 159 c 0
 67 159 60 166 60 181 c 0
76 103 m 0
 76 118 83 126 98 126 c 0
 113 126 120 118 120 103 c 0
 120 88 113 80 98 80 c 0
 83 80 76 88 76 103 c 0
76 259 m 0
 76 274 83 282 98 282 c 0
 113 282 120 274 120 259 c 0
 120 244 113 236 99 236 c 0
 84 236 76 244 76 259 c 0
120 34 m 0
 120 49 127 56 142 57 c 0
 157 56 164 49 165 34 c 0
 164 19 157 12 142 12 c 0
 127 12 120 19 120 34 c 0
120 326 m 0
 120 341 127 348 142 349 c 0
 157 348 164 341 165 326 c 0
 164 311 157 304 142 304 c 0
 127 304 120 311 120 326 c 0
187 -8 m 0
 187 7 195 14 210 14 c 0
 225 14 233 7 233 -8 c 0
 233 -23 225 -30 210 -30 c 0
 195 -30 187 -23 187 -8 c 0
187 372 m 0
 187 387 195 394 210 394 c 0
 225 394 233 387 233 372 c 0
 233 357 225 350 210 350 c 0
 195 350 187 357 187 372 c 0
310 -26 m 0
 310 -41 303 -48 288 -48 c 0
 273 -48 266 -41 265 -26 c 0
 266 -11 273 -4 288 -3 c 0
 303 -4 310 -11 310 -26 c 0
288 410 m 0
 303 410 310 403 310 388 c 0
 310 373 303 366 288 365 c 0
 273 366 266 373 265 388 c 0
 266 403 273 410 288 410 c 0
344 -8 m 0
 344 7 352 14 367 14 c 0
 382 14 390 7 390 -8 c 0
 390 -22 382 -30 367 -31 c 0
 352 -30 344 -22 344 -8 c 0
344 372 m 0
 344 387 352 394 367 394 c 0
 382 394 390 387 390 372 c 0
 390 358 382 350 367 349 c 0
 352 350 344 358 344 372 c 0
412 34 m 0
 412 49 419 56 434 57 c 0
 449 56 456 49 456 34 c 0
 456 19 449 12 434 12 c 0
 419 12 412 19 412 34 c 0
412 326 m 0
 412 341 419 348 434 349 c 0
 449 348 456 341 456 326 c 0
 456 311 449 304 434 304 c 0
 419 304 412 311 412 326 c 0
456 103 m 0
 456 118 463 126 478 126 c 0
 492 126 500 118 501 103 c 0
 500 88 492 80 478 80 c 0
 463 80 456 88 456 103 c 0
456 259 m 0
 456 274 463 282 478 282 c 0
 492 282 500 274 501 259 c 0
 500 244 492 236 478 236 c 0
 463 236 456 244 456 259 c 0
472 181 m 0
 472 196 479 203 494 203 c 0
 509 203 516 196 517 182 c 2
 517 180 l 2
 516 166 509 159 494 159 c 0
 479 159 472 166 472 181 c 0
EndSplineSet
Colour: d7d7d7
EndChar

StartChar: s.figure_dash
Encoding: 8210 8210 224
GlifName: s.figure_dash
Width: 600
VWidth: 0
GlyphClass: 2
Flags: HMW
LayerCount: 2
Fore
SplineSet
55 229 m 1
 55 307 l 1
 547 307 l 1
 547 229 l 1
 55 229 l 1
EndSplineSet
Colour: d7d7d7
EndChar

StartChar: s.em_dash
Encoding: 8212 8212 263
GlifName: s.em_dash
Width: 1200
VWidth: 1175
GlyphClass: 2
Flags: HMW
LayerCount: 2
Fore
SplineSet
55 229 m 1
 55 307 l 1
 1147 307 l 1
 1147 229 l 1
 55 229 l 1
EndSplineSet
Colour: d7d7d7
EndChar

StartChar: s.bullet
Encoding: 8226 8226 278
GlifName: s.bullet
Width: 602
VWidth: 1331
GlyphClass: 2
Flags: HMW
LayerCount: 2
Fore
SplineSet
532 432 m 0
 532 369 509 315 464 270 c 0
 419 225 365 202 302 202 c 0
 245 202 194 223 147 266 c 0
 100 309 77 357 77 410 c 0
 77 483 99 542 142 585 c 0
 185 628 236 650 295 650 c 0
 368 650 426 630 468 591 c 0
 510 552 532 499 532 432 c 0
EndSplineSet
Colour: d7d7d7
EndChar

StartChar: s.en_dash
Encoding: 8211 8211 310
GlifName: s.en_dash
Width: 600
VWidth: 1175
GlyphClass: 2
Flags: HMW
LayerCount: 2
Fore
SplineSet
55 229 m 1
 55 307 l 1
 547 307 l 1
 547 229 l 1
 55 229 l 1
EndSplineSet
Colour: d7d7d7
EndChar

StartChar: s.horizontal_bar
Encoding: 8213 8213 316
GlifName: s.horizontal_bar
Width: 2400
VWidth: 1175
GlyphClass: 2
Flags: HMW
LayerCount: 2
Fore
SplineSet
55 229 m 1
 55 307 l 1
 2347 307 l 1
 2347 229 l 1
 55 229 l 1
EndSplineSet
Colour: d7d7d7
EndChar

StartChar: s.lrm
Encoding: 8206 8206 317
GlifName: s.lrm
Width: 0
VWidth: 1331
GlyphClass: 2
Flags: HMW
LayerCount: 2
Fore
SplineSet
-25 -308 m 1
 -25 676 l 1
 196 676 l 1
 106 759 l 1
 138 790 l 1
 280 651 l 1
 138 510 l 1
 106 544 l 1
 196 628 l 1
 22 628 l 1
 22 -308 l 1
 -25 -308 l 1
EndSplineSet
Colour: d7d7d7
EndChar

StartChar: s.rlm
Encoding: 8207 8207 346
GlifName: s.rlm
Width: 0
VWidth: 1331
GlyphClass: 2
Flags: HMW
LayerCount: 2
Fore
SplineSet
22 676 m 1
 22 -308 l 1
 -25 -308 l 1
 -25 628 l 1
 -196 628 l 1
 -108 544 l 1
 -138 510 l 1
 -280 651 l 1
 -138 790 l 1
 -108 759 l 1
 -196 676 l 1
 22 676 l 1
EndSplineSet
Colour: d7d7d7
EndChar

StartChar: _.sing.yeh_domBoride
Encoding: 65664 -1 400
GlifName: _.mark.he_yeh
Width: 209
VWidth: 1304
GlyphClass: 1
UnlinkRmOvrlpSave: 1
Flags: HMW
LayerCount: 2
Fore
SplineSet
192 89 m 2
 192 90 l 2
 192 95 184 100 167 104 c 0
 153 107 144 109 141 109 c 0
 122 114 113 124 113 141 c 0
 113 176 135 207 178 234 c 0
 191 241 202 245 210 245 c 1
 210 200 l 1
 186 200 165 187 147 162 c 1
 145 156 l 2
 145 152 157 146 180 138 c 0
 205 130 218 124 221 120 c 0
 224 115 226 106 226 92 c 0
 226 77 219 62 206 49 c 0
 169 12 101 -6 0 -6 c 1
 17 42 l 1
 96 42 150 53 178 75 c 0
 187 82 192 87 192 89 c 2
EndSplineSet
EndChar

StartChar: uni0000
Encoding: 0 0 401
GlifName: uni0000
Width: 497
VWidth: 0
GlyphClass: 2
Flags: HMW
LayerCount: 2
Fore
SplineSet
59 -251 m 1
 59 709 l 1
 438 709 l 1
 438 -251 l 1
 59 -251 l 1
105 -181 m 1
 387 -181 l 1
 387 648 l 1
 105 648 l 1
 105 -181 l 1
EndSplineSet
EndChar

StartChar: _.ghaf.medi
Encoding: 65665 -1 402
GlifName: _.ghaf.medi
Width: 568
VWidth: 0
GlyphClass: 2
Flags: HMW
LayerCount: 2
Fore
SplineSet
-50 50 m 0
 -50 75 -26 100 -1 100 c 0
 139 100 205 109 238 120 c 0
 274 132 279 142 281 146 c 0
 281 151 282 156 282 161 c 0
 282 271 166 384 32 464 c 0
 19 472 14 486 14 497 c 0
 14 500 14 503 15 505 c 2
 34 561 l 2
 44 589 43 599 93 621 c 2
 442 780 l 2
 444 781 446 782 448 782 c 0
 455 782 458 774 458 763 c 0
 458 734 438 682 415 672 c 2
 109 533 l 1
 164 495 208 457 244 421 c 0
 261 405 276 388 291 368 c 0
 373 263 430 100 568 100 c 1
 568 -0 l 1
 462 0 398 58 344 129 c 1
 296 11 197 -1 85 -1 c 0
 57 -1 28 0 -1 -0 c 0
 -26 1 -50 24 -50 50 c 0
69 688 m 0
 69 705 76 729 87 734 c 2
 335 839 l 2
 336 839 337 840 338 840 c 0
 344 840 347 830 347 818 c 0
 347 802 342 783 333 778 c 2
 80 670 l 2
 79 670 79 669 78 669 c 0
 72 669 69 677 69 688 c 0
EndSplineSet
Colour: ffda6b
EndChar

StartChar: _.ghaf.init
Encoding: 65666 -1 403
GlifName: _.ghaf.init
Width: 522
VWidth: 0
GlyphClass: 2
Flags: HMW
LayerCount: 2
Fore
SplineSet
-50 50 m 0
 -50 75 -26 100 -1 100 c 0
 139 100 205 109 238 120 c 0
 274 132 279 142 281 146 c 0
 281 151 282 156 282 161 c 0
 282 271 166 384 32 464 c 0
 19 472 14 486 14 497 c 0
 14 500 14 503 15 505 c 2
 34 561 l 2
 44 589 43 599 93 621 c 2
 442 780 l 2
 444 781 446 782 448 782 c 0
 455 782 458 774 458 763 c 0
 458 734 438 682 415 672 c 2
 109 533 l 1
 291 405 359 291 359 200 c 0
 359 178 355 157 348 138 c 0
 301 12 199 -1 86 -1 c 0
 58 -1 28 0 -1 -0 c 0
 -26 1 -50 24 -50 50 c 0
69 688 m 0
 69 705 76 729 87 734 c 2
 335 839 l 2
 336 839 337 840 338 840 c 0
 344 840 347 830 347 818 c 0
 347 802 342 783 333 778 c 2
 80 670 l 2
 79 670 79 669 78 669 c 0
 72 669 69 677 69 688 c 0
EndSplineSet
Colour: ffda6b
EndChar

StartChar: _.la.isol.fa
Encoding: 65667 -1 404
Width: 501
VWidth: 0
Flags: HMW
LayerCount: 2
Fore
SplineSet
64 81 m 0
 64 92 68 100 78 100 c 2
 104 100 l 2
 105 100 106 100 107 100 c 0
 237 100 356 160 373 219 c 1
 350 667 l 2
 349 682 348 694 348 704 c 0
 348 736 355 745 385 770 c 2
 409 790 l 2
 416 796 421 800 426 800 c 0
 433 800 437 793 437 779 c 2
 437 283 l 2
 437 194 407 112 331 60 c 0
 266 16 182 0 104 -0 c 1
 85 14 64 56 64 81 c 0
67 587 m 0
 67 607 79 624 124 665 c 1
 131 666 137 664 139 657 c 2
 240 236 l 2
 240 233 241 229 241 226 c 0
 241 188 220 137 205 137 c 0
 203 137 200 138 198 141 c 2
 74 550 l 2
 70 566 67 577 67 587 c 0
EndSplineSet
Colour: ffda6b
EndChar

StartChar: _.la.fina.fa
Encoding: 65668 -1 405
Width: 613
VWidth: 0
Flags: HMW
LayerCount: 2
Fore
SplineSet
64 81 m 0
 64 92 68 100 78 100 c 2
 104 100 l 2
 105 100 106 100 107 100 c 0
 237 100 356 160 373 219 c 1
 350 667 l 2
 349 682 348 694 348 704 c 0
 348 736 355 745 385 770 c 2
 409 790 l 2
 416 796 421 800 426 800 c 0
 433 800 437 793 437 779 c 2
 437 279 l 1
 443 183 468 100 613 100 c 1
 613 -0 l 1
 475 0 422 56 399 130 c 1
 382 104 359 80 331 60 c 0
 266 16 182 0 104 -0 c 1
 85 14 64 56 64 81 c 0
67 587 m 0
 67 607 79 624 124 665 c 1
 131 666 137 664 139 657 c 2
 240 236 l 2
 240 233 241 229 241 226 c 0
 241 188 220 137 205 137 c 0
 203 137 200 138 198 141 c 2
 74 550 l 2
 70 566 67 577 67 587 c 0
EndSplineSet
Colour: ffda6b
EndChar

StartChar: _.sing.alef_maad
Encoding: 65671 -1 408
Width: 430
VWidth: 1352
Flags: HMW
LayerCount: 2
Fore
SplineSet
50 -47 m 0
 50 83 119 98 192 98 c 0
 215 98 238 97 260 97 c 0
 304 97 340 103 353 141 c 0
 355 147 360 150 364 149 c 0
 380 140 381 138 379 120 c 0
 367 19 311 7 249 7 c 0
 228 7 207 8 186 8 c 0
 136 8 91 0 73 -59 c 0
 72 -66 63 -65 57 -61 c 0
 53 -57 50 -56 50 -47 c 0
EndSplineSet
Colour: ffda6b
EndChar

StartChar: _.sing.star
Encoding: 65672 -1 409
Width: 503
VWidth: 1197
Flags: HMW
LayerCount: 2
Fore
SplineSet
50 543 m 1
 72 609 l 1
 123 593 l 2
 136 589 154 582 177 572 c 0
 200 562 215 557 221 555 c 1
 220 561 220 570 219 582 c 0
 218 594 218 603 217 609 c 0
 217 615 216 624 216 635 c 0
 216 646 216 655 216 660 c 2
 216 714 l 1
 286 714 l 1
 286 660 l 2
 286 623 284 588 280 555 c 1
 290 558 306 565 329 574 c 0
 352 583 368 590 379 593 c 2
 430 609 l 1
 453 543 l 1
 401 525 l 2
 390 522 373 518 350 512 c 0
 327 506 310 501 299 498 c 1
 305 491 327 464 365 417 c 1
 397 373 l 1
 341 332 l 1
 309 375 l 2
 289 402 270 432 252 463 c 1
 216 408 197 379 194 375 c 2
 162 332 l 1
 105 373 l 1
 136 417 l 2
 145 426 167 453 203 498 c 1
 192 501 175 506 152 512 c 0
 129 518 113 522 102 525 c 2
 50 543 l 1
EndSplineSet
Colour: ffda6b
EndChar

StartChar: _.sing.zarb
Encoding: 65673 -1 410
Width: 453
VWidth: 1279
Flags: HMW
LayerCount: 2
Fore
SplineSet
50 194 m 1
 156 300 l 1
 50 406 l 1
 121 477 l 1
 227 372 l 1
 333 477 l 1
 403 406 l 1
 297 300 l 1
 403 194 l 1
 333 123 l 1
 227 230 l 1
 121 123 l 1
 50 194 l 1
EndSplineSet
Colour: ffda6b
EndChar

StartChar: _.sing.khateh_amoodi
Encoding: 65674 -1 411
Width: 200
VWidth: 1331
Flags: HMW
LayerCount: 2
Fore
SplineSet
50 -0 m 1
 50 341 l 1
 150 341 l 1
 150 -0 l 1
 50 -0 l 1
50 460 m 1
 50 801 l 1
 150 801 l 1
 150 460 l 1
 50 460 l 1
EndSplineSet
Colour: ffda6b
EndChar
